<?xml version="1.0" standalone="no"?>
  <!DOCTYPE svg PUBLIC "-//W3C//DTD SVG 1.1//EN" "http://www.w3.org/Graphics/SVG/1.1/DTD/svg11.dtd" >
  <svg>
  <metadata>
  Created by font-carrier
  </metadata>
  <defs>
  <font id="MTSWide-Regular" horiz-adv-x="1507" vert-adv-y="1507" >
    <font-face
      
      font-family="MTS Wide"
      
      font-weight="400"
      
      font-stretch="normal"
      
      units-per-em="1000"
      
      ascent="880"
      
      descent="-292"
      
    />
      <missing-glyph />

      

      
      <glyph glyph-name="uni41" unicode="&#x41;" d="M451 690L761 0L659 0L571 197L187 197L99 0L7 0L317 690L451 690M220 271L538 271L379 626L220 271Z"  horiz-adv-x="768" vert-adv-y="1000"  />

      
      <glyph glyph-name="uni42" unicode="&#x42;" d="M484 690Q581 690 632.50 648Q684 606 684 521Q684 462 657.50 419Q631 376 574 358Q638 344 671.50 303.50Q705 263 705 194Q705 100 653 50Q601 0 498 0L84 0L84 690L484 690M606 213Q606 262 574 290Q542 318 476 318L180 318L180 70L476 70Q540 70 573 97.50Q606 125 606 178L606 213M585 523Q585 570 557 595Q529 620 469 620L180 620L180 386L469 386Q529 386 557 415Q585 444 585 495L585 523Z"  horiz-adv-x="755" vert-adv-y="1000"  />

      
      <glyph glyph-name="uni43" unicode="&#x43;" d="M50 344Q50 440 74 508Q98 576 144.50 618.50Q191 661 259.50 681Q328 701 416 701Q575 701 658 648.50Q741 596 758 480L660 480Q652 521 633.50 549Q615 577 585 593.50Q555 610 513 617Q471 624 416 624Q354 624 304 611Q254 598 219.50 568.50Q185 539 166.50 492Q148 445 148 378L148 315Q148 183 219 124.50Q290 66 417 66Q469 66 510.50 72Q552 78 582 93.50Q612 109 631.50 135.50Q651 162 661 202L759 202Q739 89 655.50 39Q572-11 416-11Q328-11 259.50 8.50Q191 28 144.50 70.50Q98 113 74 180.50Q50 248 50 344Z"  horiz-adv-x="795" vert-adv-y="1000"  />

      
      <glyph glyph-name="uni44" unicode="&#x44;" d="M442 80Q562 80 626.50 137.50Q691 195 691 318L691 377Q691 500 626.50 555Q562 610 442 610L181 610L181 80L442 80M446 690Q531 690 595.50 670.50Q660 651 703 609Q746 567 768 501.50Q790 436 790 344Q790 166 703 83Q616 0 446 0L84 0L84 690L446 690Z"  horiz-adv-x="840" vert-adv-y="1000"  />

      
      <glyph glyph-name="uni45" unicode="&#x45;" d="M643 690L643 613L181 613L181 390L541 390L541 314L181 314L181 77L647 77L647 0L84 0L84 690L643 690Z"  horiz-adv-x="688" vert-adv-y="1000"  />

      
      <glyph glyph-name="unicb" unicode="&#xcb;" d="M643 690L643 613L181 613L181 390L541 390L541 314L181 314L181 77L647 77L647 0L84 0L84 690L643 690M182 827Q182 879 239 879Q297 879 297 827Q297 774 239 774Q182 774 182 827M434 827Q434 879 491 879Q549 879 549 827Q549 774 491 774Q434 774 434 827Z"  horiz-adv-x="688" vert-adv-y="1000"  />

      
      <glyph glyph-name="uni46" unicode="&#x46;" d="M635 690L635 610L181 610L181 381L561 381L561 302L181 302L181 0L84 0L84 690L635 690Z"  horiz-adv-x="661" vert-adv-y="1000"  />

      
      <glyph glyph-name="uni47" unicode="&#x47;" d="M50 344Q50 440 74.50 508Q99 576 146 619Q193 662 262 681.50Q331 701 420 701Q580 701 665 650Q750 599 770 484L672 484Q656 563 594.50 593.50Q533 624 420 624Q285 624 216.50 566.50Q148 509 148 376L148 315Q148 185 216.50 125.50Q285 66 420 66Q556 66 618 115Q680 164 685 265L438 265L438 336L779 336L779 291Q779 141 689.50 65Q600-11 420-11Q331-11 262 8.50Q193 28 146 70.50Q99 113 74.50 180.50Q50 248 50 344Z"  horiz-adv-x="825" vert-adv-y="1000"  />

      
      <glyph glyph-name="uni48" unicode="&#x48;" d="M181 690L181 394L629 394L629 690L727 690L727 0L629 0L629 314L181 314L181 0L84 0L84 690L181 690Z"  horiz-adv-x="810" vert-adv-y="1000"  />

      
      <glyph glyph-name="uni49" unicode="&#x49;" d="M181 690L181 0L84 0L84 690L181 690Z"  horiz-adv-x="265" vert-adv-y="1000"  />

      
      <glyph glyph-name="uni4a" unicode="&#x4a;" d="M136 78Q177 78 194 99.50Q211 121 211 163L211 690L308 690L308 150Q308 74 275.50 37Q243 0 158 0L15 0L15 78L136 78Z"  horiz-adv-x="389" vert-adv-y="1000"  />

      
      <glyph glyph-name="uni4b" unicode="&#x4b;" d="M717 690L388 356L735 0L607 0L303 311L181 311L181 0L84 0L84 690L181 690L181 390L304 390L599 690L717 690Z"  horiz-adv-x="734" vert-adv-y="1000"  />

      
      <glyph glyph-name="uni4c" unicode="&#x4c;" d="M181 690L181 80L623 80L623 0L84 0L84 690L181 690Z"  horiz-adv-x="639" vert-adv-y="1000"  />

      
      <glyph glyph-name="uni4d" unicode="&#x4d;" d="M173 606L173 0L84 0L84 690L233 690L482 87L733 690L878 690L878 0L781 0L781 608L528 0L425 0L173 606Z"  horiz-adv-x="962" vert-adv-y="1000"  />

      
      <glyph glyph-name="uni4e" unicode="&#x4e;" d="M175 596L175 0L84 0L84 690L217 690L647 96L647 690L738 690L738 0L607 0L175 596Z"  horiz-adv-x="822" vert-adv-y="1000"  />

      
      <glyph glyph-name="uni4f" unicode="&#x4f;" d="M732 382Q732 509 659 566.50Q586 624 440 624Q294 624 221 566.50Q148 509 148 382L148 312Q148 185 220.50 125.50Q293 66 440 66Q586 66 659 125.50Q732 185 732 312L732 382M50 346Q50 443 75 510.50Q100 578 149 620.50Q198 663 271 682Q344 701 440 701Q536 701 609 682Q682 663 731 620.50Q780 578 805 510.50Q830 443 830 346Q830 250 805 182Q780 114 731 71.50Q682 29 609 9Q536-11 440-11Q344-11 271 9Q198 29 149 71.50Q100 114 75 182Q50 250 50 346Z"  horiz-adv-x="880" vert-adv-y="1000"  />

      
      <glyph glyph-name="uni50" unicode="&#x50;" d="M486 690Q601 690 654.50 633.50Q708 577 708 478Q708 378 655 322Q602 266 486 266L181 266L181 0L84 0L84 690L486 690M610 492Q610 546 578.50 579.50Q547 613 476 613L181 613L181 344L476 344Q547 344 578.50 376Q610 408 610 461L610 492Z"  horiz-adv-x="740" vert-adv-y="1000"  />

      
      <glyph glyph-name="uni51" unicode="&#x51;" d="M50 346Q50 443 75 510.50Q100 578 149 620.50Q198 663 271 682Q344 701 440 701Q536 701 609 682Q682 663 731 620.50Q780 578 805 510.50Q830 443 830 346Q830 249 805 181Q780 113 730 70L833-34L764-92L651 23Q567-11 440-11Q344-11 271 9Q198 29 149 71.50Q100 114 75 182Q50 250 50 346M732 382Q732 509 659 566.50Q586 624 440 624Q294 624 221 566.50Q148 509 148 382L148 312Q148 185 220.50 125.50Q293 66 440 66Q586 66 659 125.50Q732 185 732 312L732 382Z"  horiz-adv-x="880" vert-adv-y="1000"  />

      
      <glyph glyph-name="uni52" unicode="&#x52;" d="M485 690Q597 690 652.50 636.50Q708 583 708 483Q708 400 670 349.50Q632 299 556 283L739 0L628 0L450 276L181 276L181 0L84 0L84 690L485 690M610 497Q610 523 602.50 545Q595 567 578.50 582.50Q562 598 536.50 606.50Q511 615 474 615L181 615L181 352L474 352Q547 352 578.50 384.50Q610 417 610 468L610 497Z"  horiz-adv-x="770" vert-adv-y="1000"  />

      
      <glyph glyph-name="uni53" unicode="&#x53;" d="M142 188Q151 151 169 127Q187 103 216 89Q245 75 286.50 69.50Q328 64 384 64Q501 64 553.50 94Q606 124 606 187Q606 230 582.50 253.50Q559 277 520 289Q481 301 431.50 306Q382 311 330.50 315.50Q279 320 229.50 328.50Q180 337 141 356.50Q102 376 78.50 411Q55 446 55 503Q55 605 137.50 653Q220 701 372 701Q522 701 601 656.50Q680 612 691 509L591 509Q586 543 569 565.50Q552 588 524 601.50Q496 615 457.50 620.50Q419 626 372 626Q264 626 207.50 599Q151 572 151 504Q151 464 174.50 442Q198 420 237 408.50Q276 397 325.50 393Q375 389 426.50 384Q478 379 527.50 370Q577 361 616 341Q655 321 678.50 285Q702 249 702 191Q702 86 626 37.50Q550-11 385-11Q302-11 241 0Q180 11 138.50 34.50Q97 58 73.50 96Q50 134 42 188L142 188Z"  horiz-adv-x="747" vert-adv-y="1000"  />

      
      <glyph glyph-name="uni54" unicode="&#x54;" d="M15 610L15 690L681 690L681 610L396 610L396 0L299 0L299 610L15 610Z"  horiz-adv-x="696" vert-adv-y="1000"  />

      
      <glyph glyph-name="uni55" unicode="&#x55;" d="M76 690L174 690L174 273Q174 215 189.50 175.50Q205 136 234.50 111.50Q264 87 307.50 76.50Q351 66 407 66Q463 66 506.50 76.50Q550 87 580 111.50Q610 136 625.50 175.50Q641 215 641 273L641 690L732 690L732 271Q732 131 652.50 60Q573-11 407-11Q237-11 156.50 60Q76 131 76 271L76 690Z"  horiz-adv-x="808" vert-adv-y="1000"  />

      
      <glyph glyph-name="uni56" unicode="&#x56;" d="M753 690L444 0L314 0L7 690L110 690L385 72L661 690L753 690Z"  horiz-adv-x="759" vert-adv-y="1000"  />

      
      <glyph glyph-name="uni57" unicode="&#x57;" d="M991 690L807 0L679 0L504 602L324 0L197 0L19 690L117 690L272 86L453 690L569 690L743 88L903 690L991 690Z"  horiz-adv-x="1007" vert-adv-y="1000"  />

      
      <glyph glyph-name="uni58" unicode="&#x58;" d="M2 0L313 348L10 690L128 690L378 409L631 690L738 690L436 353L750 0L632 0L372 292L110 0L2 0Z"  horiz-adv-x="751" vert-adv-y="1000"  />

      
      <glyph glyph-name="uni59" unicode="&#x59;" d="M3 690L117 690L383 366L637 690L737 690L427 297L427 0L329 0L329 297L3 690Z"  horiz-adv-x="748" vert-adv-y="1000"  />

      
      <glyph glyph-name="uni5a" unicode="&#x5a;" d="M540 611L45 611L45 690L660 690L660 610L157 79L667 79L667 0L38 0L38 80L540 611Z"  horiz-adv-x="702" vert-adv-y="1000"  />

      
      <glyph glyph-name="uni0404" unicode="&#x0404;" d="M50 344Q50 440 74 508Q98 576 144.50 618.50Q191 661 259.50 681Q328 701 416 701Q575 701 658.50 650Q742 599 759 481L660 481Q652 523 633.50 550.50Q615 578 585 594.50Q555 611 513 617.50Q471 624 416 624Q355 624 306 611.50Q257 599 222.50 571Q188 543 168.50 498Q149 453 148 389L533 389L533 315L148 315Q148 183 219 124.50Q290 66 417 66Q469 66 510.50 72Q552 78 582 93.50Q612 109 631.50 135.50Q651 162 661 202L760 202Q739 89 655.50 39Q572-11 416-11Q328-11 259.50 8.50Q191 28 144.50 70.50Q98 113 74 180.50Q50 248 50 344Z"  horiz-adv-x="795" vert-adv-y="1000"  />

      
      <glyph glyph-name="uni0406" unicode="&#x0406;" d="M181 690L181 0L84 0L84 690L181 690Z"  horiz-adv-x="265" vert-adv-y="1000"  />

      
      <glyph glyph-name="uni0407" unicode="&#x0407;" d="M21 826Q21 879 70 879Q120 879 120 826Q120 773 70 773Q21 773 21 826M145 826Q145 879 194 879Q244 879 244 826Q244 773 194 773Q145 773 145 826M181 690L181 0L84 0L84 690L181 690Z"  horiz-adv-x="265" vert-adv-y="1000"  />

      
      <glyph glyph-name="uni0408" unicode="&#x0408;" d="M136 78Q177 78 194 99.50Q211 121 211 163L211 690L308 690L308 150Q308 74 275.50 37Q243 0 158 0L15 0L15 78L136 78Z"  horiz-adv-x="389" vert-adv-y="1000"  />

      
      <glyph glyph-name="uni0410" unicode="&#x0410;" d="M451 690L761 0L659 0L571 197L187 197L99 0L7 0L317 690L451 690M220 271L538 271L379 626L220 271Z"  horiz-adv-x="768" vert-adv-y="1000"  />

      
      <glyph glyph-name="uni0411" unicode="&#x0411;" d="M660 690L660 613L180 613L180 404L484 404Q599 404 652.50 352Q706 300 706 204Q706 108 652 54Q598 0 484 0L84 0L84 690L660 690M607 220Q607 267 574.50 299Q542 331 466 331L180 331L180 74L466 74Q541 74 574 105.50Q607 137 607 187L607 220Z"  horiz-adv-x="744" vert-adv-y="1000"  />

      
      <glyph glyph-name="uni0412" unicode="&#x0412;" d="M484 690Q581 690 632.50 648Q684 606 684 521Q684 462 657.50 419Q631 376 574 358Q638 344 671.50 303.50Q705 263 705 194Q705 100 653 50Q601 0 498 0L84 0L84 690L484 690M606 213Q606 262 574 290Q542 318 476 318L180 318L180 70L476 70Q540 70 573 97.50Q606 125 606 178L606 213M585 523Q585 570 557 595Q529 620 469 620L180 620L180 386L469 386Q529 386 557 415Q585 444 585 495L585 523Z"  horiz-adv-x="755" vert-adv-y="1000"  />

      
      <glyph glyph-name="uni0413" unicode="&#x0413;" d="M594 690L594 610L181 610L181 0L84 0L84 690L594 690Z"  horiz-adv-x="610" vert-adv-y="1000"  />

      
      <glyph glyph-name="uni0414" unicode="&#x0414;" d="M737 0L102 0L102-150L12-150L12 80L89 80Q102 101 114.50 132Q127 163 136.50 207.50Q146 252 152 310.50Q158 369 158 446L158 690L737 690L737 80L828 80L828-150L737-150L737 0M248 610L248 446Q248 369 243 310.50Q238 252 229.50 207.50Q221 163 210.50 132Q200 101 189 80L640 80L640 610L248 610Z"  horiz-adv-x="853" vert-adv-y="1000"  />

      
      <glyph glyph-name="uni0415" unicode="&#x0415;" d="M643 690L643 613L181 613L181 390L541 390L541 314L181 314L181 77L647 77L647 0L84 0L84 690L643 690Z"  horiz-adv-x="688" vert-adv-y="1000"  />

      
      <glyph glyph-name="uni0401" unicode="&#x0401;" d="M643 690L643 613L181 613L181 390L541 390L541 314L181 314L181 77L647 77L647 0L84 0L84 690L643 690M182 827Q182 879 239 879Q297 879 297 827Q297 774 239 774Q182 774 182 827M434 827Q434 879 491 879Q549 879 549 827Q549 774 491 774Q434 774 434 827Z"  horiz-adv-x="688" vert-adv-y="1000"  />

      
      <glyph glyph-name="uni0416" unicode="&#x0416;" d="M1090 690L761 357L1104 0L979 0L680 310L600 310L600 0L502 0L502 310L422 310L123 0L1 0L339 352L8 690L126 690L421 390L502 390L502 690L600 690L600 390L681 390L976 690L1090 690Z"  horiz-adv-x="1105" vert-adv-y="1000"  />

      
      <glyph glyph-name="uni0417" unicode="&#x0417;" d="M137 187Q148 119 208.50 91.50Q269 64 375 64Q599 64 599 179L599 209Q599 261 556.50 288.50Q514 316 429 316L245 316L245 390L429 390Q500 390 539.50 417Q579 444 579 494L579 520Q579 577 526.50 601.50Q474 626 372 626Q324 626 284.50 620.50Q245 615 216 602.50Q187 590 169.50 568Q152 546 147 513L49 513Q61 615 145 658Q229 701 372 701Q677 701 677 517Q677 455 641.50 414.50Q606 374 544 360Q613 348 655 308.50Q697 269 697 197Q697 93 617.50 41Q538-11 375-11Q224-11 138.50 34.50Q53 80 39 187L137 187Z"  horiz-adv-x="743" vert-adv-y="1000"  />

      
      <glyph glyph-name="uni0418" unicode="&#x0418;" d="M190 0L84 0L84 690L181 690L181 120L633 690L739 690L739 0L641 0L641 570L190 0Z"  horiz-adv-x="823" vert-adv-y="1000"  />

      
      <glyph glyph-name="uni0419" unicode="&#x0419;" d="M190 0L84 0L84 690L181 690L181 120L633 690L739 690L739 0L641 0L641 570L190 0M313 901Q315 852 338 832.50Q361 813 412 813Q463 813 486 832.50Q509 852 511 901L594 901Q592 828 548.50 790.50Q505 753 412 753Q320 753 276 790.50Q232 828 230 901L313 901Z"  horiz-adv-x="823" vert-adv-y="1000"  />

      
      <glyph glyph-name="uni041A" unicode="&#x041A;" d="M717 690L388 356L735 0L607 0L303 311L181 311L181 0L84 0L84 690L181 690L181 390L304 390L599 690L717 690Z"  horiz-adv-x="734" vert-adv-y="1000"  />

      
      <glyph glyph-name="uni041B" unicode="&#x041B;" d="M31 86Q69 86 92 102.50Q115 119 127.50 155.50Q140 192 144 251.50Q148 311 148 398L148 690L707 690L707 0L610 0L610 610L238 610L238 398Q238 288 230.50 212Q223 136 201.50 89Q180 42 141.50 21Q103 0 41 0L14 0L14 86L31 86Z"  horiz-adv-x="791" vert-adv-y="1000"  />

      
      <glyph glyph-name="uni041C" unicode="&#x041C;" d="M173 606L173 0L84 0L84 690L233 690L482 87L733 690L878 690L878 0L781 0L781 608L528 0L425 0L173 606Z"  horiz-adv-x="962" vert-adv-y="1000"  />

      
      <glyph glyph-name="uni041D" unicode="&#x041D;" d="M181 690L181 394L629 394L629 690L727 690L727 0L629 0L629 314L181 314L181 0L84 0L84 690L181 690Z"  horiz-adv-x="810" vert-adv-y="1000"  />

      
      <glyph glyph-name="uni041E" unicode="&#x041E;" d="M732 382Q732 509 659 566.50Q586 624 440 624Q294 624 221 566.50Q148 509 148 382L148 312Q148 185 220.50 125.50Q293 66 440 66Q586 66 659 125.50Q732 185 732 312L732 382M50 346Q50 443 75 510.50Q100 578 149 620.50Q198 663 271 682Q344 701 440 701Q536 701 609 682Q682 663 731 620.50Q780 578 805 510.50Q830 443 830 346Q830 250 805 182Q780 114 731 71.50Q682 29 609 9Q536-11 440-11Q344-11 271 9Q198 29 149 71.50Q100 114 75 182Q50 250 50 346Z"  horiz-adv-x="880" vert-adv-y="1000"  />

      
      <glyph glyph-name="uni041F" unicode="&#x041F;" d="M714 690L714 0L616 0L616 610L181 610L181 0L84 0L84 690L714 690Z"  horiz-adv-x="798" vert-adv-y="1000"  />

      
      <glyph glyph-name="uni0420" unicode="&#x0420;" d="M486 690Q601 690 654.50 633.50Q708 577 708 478Q708 378 655 322Q602 266 486 266L181 266L181 0L84 0L84 690L486 690M610 492Q610 546 578.50 579.50Q547 613 476 613L181 613L181 344L476 344Q547 344 578.50 376Q610 408 610 461L610 492Z"  horiz-adv-x="740" vert-adv-y="1000"  />

      
      <glyph glyph-name="uni0421" unicode="&#x0421;" d="M50 344Q50 440 74 508Q98 576 144.50 618.50Q191 661 259.50 681Q328 701 416 701Q575 701 658 648.50Q741 596 758 480L660 480Q652 521 633.50 549Q615 577 585 593.50Q555 610 513 617Q471 624 416 624Q354 624 304 611Q254 598 219.50 568.50Q185 539 166.50 492Q148 445 148 378L148 315Q148 183 219 124.50Q290 66 417 66Q469 66 510.50 72Q552 78 582 93.50Q612 109 631.50 135.50Q651 162 661 202L759 202Q739 89 655.50 39Q572-11 416-11Q328-11 259.50 8.50Q191 28 144.50 70.50Q98 113 74 180.50Q50 248 50 344Z"  horiz-adv-x="795" vert-adv-y="1000"  />

      
      <glyph glyph-name="uni0422" unicode="&#x0422;" d="M15 610L15 690L681 690L681 610L396 610L396 0L299 0L299 610L15 610Z"  horiz-adv-x="696" vert-adv-y="1000"  />

      
      <glyph glyph-name="uni0423" unicode="&#x0423;" d="M114 690L370 278L608 690L704 690L306 0L210 0L319 189L6 690L114 690Z"  horiz-adv-x="708" vert-adv-y="1000"  />

      
      <glyph glyph-name="uni040E" unicode="&#x040E;" d="M114 690L370 278L608 690L704 690L306 0L210 0L319 189L6 690L114 690M270 901Q272 852 295 832.50Q318 813 369 813Q420 813 443 832.50Q466 852 468 901L551 901Q549 828 505.50 790.50Q462 753 369 753Q277 753 233 790.50Q189 828 187 901L270 901Z"  horiz-adv-x="708" vert-adv-y="1000"  />

      
      <glyph glyph-name="uni0424" unicode="&#x0424;" d="M454 99Q347 99 269.50 113Q192 127 141 158Q90 189 65.50 238.50Q41 288 41 360Q41 434 65.50 484Q90 534 141 564.50Q192 595 269.50 608.50Q347 622 454 622L454 701L551 701L551 622Q657 622 735 608.50Q813 595 864 564.50Q915 534 939.50 484Q964 434 964 360Q964 288 939.50 238.50Q915 189 864 158Q813 127 735 113Q657 99 551 99L551-11L454-11L454 99M454 546Q367 546 307 537Q247 528 209.50 508Q172 488 155.50 456Q139 424 139 378L139 339Q139 296 155 265Q171 234 208 214Q245 194 305.50 184.50Q366 175 454 175L454 546M866 378Q866 424 849.50 456Q833 488 796 508Q759 528 699 537Q639 546 551 546L551 175Q639 175 699.50 184.50Q760 194 797 214Q834 234 850 265Q866 296 866 339L866 378Z"  horiz-adv-x="1005" vert-adv-y="1000"  />

      
      <glyph glyph-name="uni0425" unicode="&#x0425;" d="M2 0L313 348L10 690L128 690L378 409L631 690L738 690L436 353L750 0L632 0L372 292L110 0L2 0Z"  horiz-adv-x="751" vert-adv-y="1000"  />

      
      <glyph glyph-name="uni0426" unicode="&#x0426;" d="M713 0L84 0L84 690L181 690L181 80L616 80L616 690L714 690L714 80L803 80L803-150L713-150L713 0Z"  horiz-adv-x="829" vert-adv-y="1000"  />

      
      <glyph glyph-name="uni0427" unicode="&#x0427;" d="M581 283Q537 278 483 274.50Q429 271 378 271Q288 271 225.50 283Q163 295 124 322Q85 349 68 391.50Q51 434 51 495L51 690L148 690L148 507Q148 458 162.50 427.50Q177 397 207 379.50Q237 362 282 356Q327 350 388 350Q431 350 482.50 353Q534 356 581 361L581 690L679 690L679 0L581 0L581 283L581 283Z"  horiz-adv-x="762" vert-adv-y="1000"  />

      
      <glyph glyph-name="uni0428" unicode="&#x0428;" d="M182 690L182 80L505 80L505 690L603 690L603 80L926 80L926 690L1024 690L1024 0L84 0L84 690L182 690Z"  horiz-adv-x="1106" vert-adv-y="1000"  />

      
      <glyph glyph-name="uni0429" unicode="&#x0429;" d="M182 690L182 80L505 80L505 690L603 690L603 80L926 80L926 690L1024 690L1024 80L1113 80L1113-150L1023-150L1023 0L84 0L84 690L182 690Z"  horiz-adv-x="1138" vert-adv-y="1000"  />

      
      <glyph glyph-name="uni042A" unicode="&#x042A;" d="M306 690L306 435L603 435Q720 435 775 377.50Q830 320 830 218Q830 117 775 58.50Q720 0 603 0L209 0L209 610L16 610L16 690L306 690M732 236Q732 261 725 283Q718 305 701 321.50Q684 338 656.50 347.50Q629 357 589 357L306 357L306 78L589 78Q629 78 656.50 87Q684 96 701 112.50Q718 129 725 151Q732 173 732 200L732 236Z"  horiz-adv-x="862" vert-adv-y="1000"  />

      
      <glyph glyph-name="uni042B" unicode="&#x042B;" d="M181 690L181 435L478 435Q595 435 650 377.50Q705 320 705 218Q705 117 650 58.50Q595 0 478 0L84 0L84 690L181 690M607 236Q607 261 600 283Q593 305 576.50 321.50Q560 338 532.50 347.50Q505 357 465 357L181 357L181 78L465 78Q505 78 532.50 87Q560 96 576.50 112.50Q593 129 600 151.50Q607 174 607 201L607 236M895 690L895 0L798 0L798 690L895 690Z"  horiz-adv-x="979" vert-adv-y="1000"  />

      
      <glyph glyph-name="uni042C" unicode="&#x042C;" d="M181 690L181 435L478 435Q595 435 650 377.50Q705 320 705 218Q705 117 650 58.50Q595 0 478 0L84 0L84 690L181 690M607 236Q607 261 600 283Q593 305 576.50 321.50Q560 338 532.50 347.50Q505 357 465 357L181 357L181 78L465 78Q505 78 532.50 87Q560 96 576.50 112.50Q593 129 600 151.50Q607 174 607 201L607 236Z"  horiz-adv-x="738" vert-adv-y="1000"  />

      
      <glyph glyph-name="uni042D" unicode="&#x042D;" d="M269 388L646 388Q645 452 626.50 497Q608 542 574.50 570Q541 598 493 611Q445 624 385 624Q333 624 291 617.50Q249 611 217.50 595Q186 579 165.50 552Q145 525 137 484L38 484Q58 602 146 651.50Q234 701 386 701Q471 701 538 682Q605 663 650.50 621Q696 579 720 511Q744 443 744 344Q744 246 719.50 178.50Q695 111 648 69Q601 27 533.50 8Q466-11 380-11Q225-11 138.50 39.50Q52 90 33 199L131 199Q151 124 212.50 95Q274 66 380 66Q441 66 490.50 79.50Q540 93 574.50 122.50Q609 152 627.50 199Q646 246 646 313L646 314L269 314L269 388Z"  horiz-adv-x="795" vert-adv-y="1000"  />

      
      <glyph glyph-name="uni042E" unicode="&#x042E;" d="M181 690L181 394L302 394Q308 477 334.50 535.50Q361 594 408.50 630.50Q456 667 523 684Q590 701 677 701Q770 701 840 681.50Q910 662 957 619.50Q1004 577 1028 509.50Q1052 442 1052 345Q1052 250 1028 183Q1004 116 957 72.50Q910 29 840 9Q770-11 677-11Q498-11 403 66Q308 143 301 316L181 316L181 0L84 0L84 690L181 690M954 377Q954 508 885.50 566Q817 624 677 624Q537 624 468.50 565.50Q400 507 400 376L400 318Q400 187 468.50 126.50Q537 66 677 66Q816 66 885 127Q954 188 954 318L954 377Z"  horiz-adv-x="1102" vert-adv-y="1000"  />

      
      <glyph glyph-name="uni042F" unicode="&#x042F;" d="M322 277L145 0L39 0L219 282Q55 309 55 482Q55 579 111.50 634.50Q168 690 283 690L681 690L681 0L583 0L583 277L322 277M300 613Q223 613 188 582.50Q153 552 153 496L153 467Q153 413 188.50 383Q224 353 300 353L583 353L583 613L300 613Z"  horiz-adv-x="765" vert-adv-y="1000"  />

      
      <glyph glyph-name="uni0490" unicode="&#x0490;" d="M505 690L505 840L594 840L594 610L181 610L181 0L84 0L84 690L505 690Z"  horiz-adv-x="610" vert-adv-y="1000"  />

      
      <glyph glyph-name="uni61" unicode="&#x61;" d="M45 135Q45 168 55.50 194.50Q66 221 90 239.50Q114 258 153 269Q192 280 250 283L481 291L481 307Q481 380 440.50 411.50Q400 443 315 443Q248 443 206 423.50Q164 404 153 354L61 354Q74 431 136 469Q198 507 315 507Q446 507 509 460Q572 413 572 307L572 0L485 0L485 92Q456 42 395 15.50Q334-11 249-11Q138-11 91.50 28Q45 67 45 135M268 53Q311 53 350 61Q389 69 418 88Q447 107 464 137.50Q481 168 481 212L481 235L267 227Q201 223 169 205Q137 187 137 144L137 133Q137 93 168.50 73Q200 53 268 53Z"  horiz-adv-x="641" vert-adv-y="1000"  />

      
      <glyph glyph-name="uni62" unicode="&#x62;" d="M167 730L167 409Q198 460 253 483.50Q308 507 386 507Q449 507 498.50 493Q548 479 581.50 448Q615 417 633 367.50Q651 318 651 248Q651 177 633 128Q615 79 581.50 48Q548 17 498.50 3Q449-11 386-11Q306-11 250 12.50Q194 36 164 90L164 0L76 0L76 730L167 730M559 275Q559 364 508 402.50Q457 441 366 441Q271 441 220 404Q169 367 167 283L167 222Q167 135 218 95Q269 55 366 55Q459 55 509 95Q559 135 559 222L559 275Z"  horiz-adv-x="696" vert-adv-y="1000"  />

      
      <glyph glyph-name="uni63" unicode="&#x63;" d="M44 247Q44 383 111.50 445Q179 507 320 507Q435 507 501 469.50Q567 432 581 351L489 351Q473 401 433.50 421Q394 441 320 441Q224 441 180 402Q136 363 136 275L136 220Q136 129 184 92Q232 55 320 55Q397 55 436.50 77.50Q476 100 490 143L582 143Q550-11 320-11Q253-11 201.50 2.50Q150 16 115 46Q80 76 62 125.50Q44 175 44 247Z"  horiz-adv-x="617" vert-adv-y="1000"  />

      
      <glyph glyph-name="uni64" unicode="&#x64;" d="M44 245Q44 315 62 365Q80 415 114.50 446.50Q149 478 199.50 492.50Q250 507 314 507Q390 507 444 484.50Q498 462 528 411L528 730L619 730L619 0L532 0L532 92Q503 39 448 14Q393-11 314-11Q251-11 200.50 2.50Q150 16 115.50 46.50Q81 77 62.50 126Q44 175 44 245M528 283Q525 366 474 403.50Q423 441 332 441Q238 441 187 402Q136 363 136 272L136 220Q136 133 187.50 94Q239 55 332 55Q425 55 476.50 95Q528 135 528 222L528 283Z"  horiz-adv-x="695" vert-adv-y="1000"  />

      
      <glyph glyph-name="uni65" unicode="&#x65;" d="M44 248Q44 386 115.50 446.50Q187 507 317 507Q447 507 518 450Q589 393 589 267L589 243L135 243L135 220Q135 54 317 54Q390 54 433.50 75Q477 96 494 142L584 142Q561 62 492.50 25.50Q424-11 317-11Q252-11 201.50 3.50Q151 18 116 49Q81 80 62.50 129Q44 178 44 248M317 443Q277 443 244.50 435.50Q212 428 188.50 410.50Q165 393 151.50 365.50Q138 338 135 299L498 299Q494 378 449.50 410.50Q405 443 317 443Z"  horiz-adv-x="631" vert-adv-y="1000"  />

      
      <glyph glyph-name="unieb" unicode="&#xeb;" d="M44 248Q44 386 115.50 446.50Q187 507 317 507Q447 507 518 450Q589 393 589 267L589 243L135 243L135 220Q135 54 317 54Q390 54 433.50 75Q477 96 494 142L584 142Q561 62 492.50 25.50Q424-11 317-11Q252-11 201.50 3.50Q151 18 116 49Q81 80 62.50 129Q44 178 44 248M317 443Q277 443 244.50 435.50Q212 428 188.50 410.50Q165 393 151.50 365.50Q138 338 135 299L498 299Q494 378 449.50 410.50Q405 443 317 443M149 657Q149 709 207 709Q265 709 265 657Q265 605 207 605Q149 605 149 657M369 657Q369 709 427 709Q485 709 485 657Q485 605 427 605Q369 605 369 657Z"  horiz-adv-x="631" vert-adv-y="1000"  />

      
      <glyph glyph-name="uni66" unicode="&#x66;" d="M95 496L95 596Q95 628 102 653Q109 678 125.50 695Q142 712 170.50 721Q199 730 241 730L380 730L380 661L253 661Q217 661 202 644Q187 627 187 594L187 496L380 496L380 427L187 427L187 0L95 0L95 427L25 427L25 496L95 496Z"  horiz-adv-x="388" vert-adv-y="1000"  />

      
      <glyph glyph-name="uniFB01" unicode="&#xFB01;" d="M95 496L95 596Q95 627 102 652Q109 677 126 694Q143 711 171.50 720.50Q200 730 242 730L518 730L518 661L253 661Q217 661 202 644Q187 627 187 594L187 496L518 496L518 0L427 0L427 427L187 427L187 0L95 0L95 427L25 427L25 496L95 496Z"  horiz-adv-x="594" vert-adv-y="1000"  />

      
      <glyph glyph-name="uniFB02" unicode="&#xFB02;" d="M95 496L95 596Q95 627 102 652Q109 677 126 694.50Q143 712 171.50 721Q200 730 243 730L518 730L518 0L427 0L427 427L187 427L187 0L95 0L95 427L25 427L25 496L95 496M187 496L427 496L427 663L255 663Q217 663 202 646Q187 629 187 594L187 496Z"  horiz-adv-x="594" vert-adv-y="1000"  />

      
      <glyph glyph-name="uni67" unicode="&#x67;" d="M45 250Q45 386 116 446.50Q187 507 316 507Q394 507 448.50 484Q503 461 533 408L533 496L622 496L622 51Q622-86 555.50-148.50Q489-211 343-211Q216-211 148.50-171.50Q81-132 64-57L158-57Q178-107 222.50-126.50Q267-146 343-146Q394-146 430-136Q466-126 488-103.50Q510-81 520-45Q530-9 530 44L530 92Q500 43 446 21Q392-1 316-1Q253-1 202.50 13Q152 27 117 57Q82 87 63.50 134.50Q45 182 45 250M530 284Q527 367 476.50 404Q426 441 334 441Q241 441 189.50 401.50Q138 362 138 273L138 226Q138 140 189 103Q240 66 334 66Q429 66 479.50 104Q530 142 530 229L530 284Z"  horiz-adv-x="696" vert-adv-y="1000"  />

      
      <glyph glyph-name="uni68" unicode="&#x68;" d="M510 300Q510 342 499.50 369Q489 396 469 411.50Q449 427 418 433.50Q387 440 347 440Q306 440 272.50 432.50Q239 425 215.50 407.50Q192 390 179.50 362.50Q167 335 167 296L167 0L76 0L76 730L167 730L167 409Q180 435 201.50 453.50Q223 472 250 484Q277 496 309 501.50Q341 507 376 507Q429 507 471 496.50Q513 486 542 462.50Q571 439 586.50 402Q602 365 602 313L602 0L510 0L510 300Z"  horiz-adv-x="671" vert-adv-y="1000"  />

      
      <glyph glyph-name="uni0131" unicode="&#x0131;" d="M167 496L167 0L76 0L76 496L167 496Z"  horiz-adv-x="243" vert-adv-y="1000"  />

      
      <glyph glyph-name="uni69" unicode="&#x69;" d="M61 657Q61 683 76.50 696.50Q92 710 121 710Q182 710 182 657Q182 604 121 604Q92 604 76.50 617.50Q61 631 61 657M167 496L167 0L76 0L76 496L167 496Z"  horiz-adv-x="243" vert-adv-y="1000"  />

      
      <glyph glyph-name="uni0237" unicode="&#x0237;" d="M11-131Q47-131 61.50-113.50Q76-96 76-63L76 496L167 496L167-68Q167-133 138-166.50Q109-200 32-200L-41-200L-41-131L11-131Z"  horiz-adv-x="243" vert-adv-y="1000"  />

      
      <glyph glyph-name="uni6a" unicode="&#x6a;" d="M61 657Q61 683 76.50 696.50Q92 710 121 710Q182 710 182 657Q182 604 121 604Q92 604 76.50 617.50Q61 631 61 657M11-131Q47-131 61.50-113.50Q76-96 76-63L76 496L167 496L167-68Q167-133 138-166.50Q109-200 32-200L-41-200L-41-131L11-131Z"  horiz-adv-x="243" vert-adv-y="1000"  />

      
      <glyph glyph-name="uni6b" unicode="&#x6b;" d="M576 496L336 259L601 0L483 0L260 218L167 218L167 0L76 0L76 730L167 730L167 287L257 287L469 496L576 496Z"  horiz-adv-x="596" vert-adv-y="1000"  />

      
      <glyph glyph-name="uni6c" unicode="&#x6c;" d="M167 730L167 0L76 0L76 730L167 730Z"  horiz-adv-x="243" vert-adv-y="1000"  />

      
      <glyph glyph-name="uni6d" unicode="&#x6d;" d="M838 306Q838 347 828.50 373Q819 399 801 414Q783 429 757.50 434.50Q732 440 700 440Q670 440 643 433.50Q616 427 595.50 412Q575 397 562.50 372Q550 347 549 310L549 0L457 0L457 306Q457 347 447.50 373Q438 399 420.50 414Q403 429 377.50 434.50Q352 440 320 440Q287 440 259.50 433Q232 426 211.50 410Q191 394 179.50 367.50Q168 341 168 303L168 0L76 0L76 496L165 496L165 407Q188 458 238.50 482.50Q289 507 351 507Q423 507 469 483Q515 459 535 405Q559 458 611.50 482.50Q664 507 731 507Q829 507 879.50 461.50Q930 416 930 314L930 0L838 0L838 306L838 306Z"  horiz-adv-x="999" vert-adv-y="1000"  />

      
      <glyph glyph-name="uni6e" unicode="&#x6e;" d="M510 300Q510 342 499.50 369Q489 396 469 411.50Q449 427 418 433.50Q387 440 347 440Q264 440 215.50 407.50Q167 375 167 296L167 0L76 0L76 496L164 496L164 403Q189 458 246.50 482.50Q304 507 376 507Q429 507 471 496.50Q513 486 542 462.50Q571 439 586.50 402Q602 365 602 313L602 0L510 0L510 300Z"  horiz-adv-x="671" vert-adv-y="1000"  />

      
      <glyph glyph-name="uni6f" unicode="&#x6f;" d="M528 274Q528 363 478 402Q428 441 332 441Q235 441 185.50 402Q136 363 136 274L136 223Q136 134 185.50 94.50Q235 55 332 55Q428 55 478 94.50Q528 134 528 223L528 274M44 248Q44 319 63 368.50Q82 418 119 448.50Q156 479 209.50 493Q263 507 332 507Q402 507 455.50 493Q509 479 545.50 448.50Q582 418 601 368.50Q620 319 620 248Q620 176 601 127Q582 78 545.50 47Q509 16 455.50 2.50Q402-11 332-11Q263-11 209.50 2.50Q156 16 119 47Q82 78 63 127Q44 176 44 248Z"  horiz-adv-x="664" vert-adv-y="1000"  />

      
      <glyph glyph-name="uni70" unicode="&#x70;" d="M164 496L164 405Q194 459 249 483Q304 507 384 507Q448 507 498 493Q548 479 582 448Q616 417 633.50 367.50Q651 318 651 248Q651 178 633.50 128.50Q616 79 582 48Q548 17 498 3Q448-11 384-11Q306-11 252 11.50Q198 34 167 84L167-200L76-200L76 496L164 496M559 275Q559 365 508 403Q457 441 363 441Q269 441 219 404Q169 367 167 283L167 222Q167 134 218 94.50Q269 55 363 55Q457 55 508 92.50Q559 130 559 222L559 275Z"  horiz-adv-x="695" vert-adv-y="1000"  />

      
      <glyph glyph-name="uni71" unicode="&#x71;" d="M44 245Q44 315 62 365Q80 415 115 446.50Q150 478 200 492.50Q250 507 315 507Q393 507 447 483.50Q501 460 531 407L531 496L619 496L619-200L528-200L528 85Q497 35 443.50 12Q390-11 315-11Q252-11 201.50 2.50Q151 16 116 46.50Q81 77 62.50 126Q44 175 44 245M332 55Q423 55 474 92.50Q525 130 528 213L528 283Q525 367 474 404Q423 441 332 441Q240 441 188 401.50Q136 362 136 272L136 220Q136 130 188 92.50Q240 55 332 55Z"  horiz-adv-x="694" vert-adv-y="1000"  />

      
      <glyph glyph-name="uni72" unicode="&#x72;" d="M164 496L164 398Q184 446 227 471Q270 496 330 496L415 496L415 417L321 417Q245 417 206 384Q167 351 167 273L167 0L76 0L76 496L164 496Z"  horiz-adv-x="431" vert-adv-y="1000"  />

      
      <glyph glyph-name="uni73" unicode="&#x73;" d="M130 150Q137 94 180.50 73.50Q224 53 303 53Q389 53 429.50 73Q470 93 470 139Q470 167 452 182Q434 197 404.50 204.50Q375 212 337 215Q299 218 260 221.50Q221 225 183 231.50Q145 238 115.50 253Q86 268 68 294Q50 320 50 363Q50 435 114 472Q178 509 298 509Q414 509 476 473.50Q538 438 545 361L453 361Q450 386 437.50 402.50Q425 419 404.50 428.50Q384 438 356.50 442Q329 446 297 446Q222 446 181 427Q140 408 140 364Q140 328 171 313Q202 298 249 291.50Q296 285 350 281Q404 277 451 264.50Q498 252 529 224Q560 196 560 141Q560 61 492.50 25.50Q425-10 303-10Q176-10 111 27Q46 64 38 150L130 150Z"  horiz-adv-x="598" vert-adv-y="1000"  />

      
      <glyph glyph-name="uni74" unicode="&#x74;" d="M25 496L92 496L92 654L183 654L183 496L368 496L368 427L183 427L183 137Q183 103 199 86Q215 69 255 69L368 69L368 0L226 0Q154 0 123 30Q92 60 92 129L92 427L25 427L25 496Z"  horiz-adv-x="388" vert-adv-y="1000"  />

      
      <glyph glyph-name="uni75" unicode="&#x75;" d="M69 496L161 496L161 195Q161 153 171.50 126.50Q182 100 202 84Q222 68 252.50 62Q283 56 324 56Q362 56 395 63.50Q428 71 452 87.50Q476 104 490 131.50Q504 159 504 200L504 496L595 496L595 0L506 0L506 90Q481 36 425 12.50Q369-11 294-11Q240-11 198.50-0.50Q157 10 128 33.50Q99 57 84 95.50Q69 134 69 190L69 496Z"  horiz-adv-x="671" vert-adv-y="1000"  />

      
      <glyph glyph-name="uni76" unicode="&#x76;" d="M596 496L360 0L251 0L8 496L104 496L310 73L509 496L596 496Z"  horiz-adv-x="603" vert-adv-y="1000"  />

      
      <glyph glyph-name="uni77" unicode="&#x77;" d="M438 425L298 0L188 0L12 496L101 496L250 70L391 496L497 496L640 72L788 496L869 496L694 0L582 0L438 425Z"  horiz-adv-x="881" vert-adv-y="1000"  />

      
      <glyph glyph-name="uni78" unicode="&#x78;" d="M291 202L105 0L7 0L238 250L13 496L123 496L299 306L476 496L574 496L351 255L584 0L475 0L291 202Z"  horiz-adv-x="590" vert-adv-y="1000"  />

      
      <glyph glyph-name="uni79" unicode="&#x79;" d="M105 496L310 84L510 496L596 496L318-72Q301-108 283.50-132.50Q266-157 245.50-172Q225-187 198.50-193.50Q172-200 137-200L69-200L69-131L128-131Q151-131 168-127.50Q185-124 198-115.50Q211-107 221.50-92.50Q232-78 243-55L264-11L8 496L105 496Z"  horiz-adv-x="604" vert-adv-y="1000"  />

      
      <glyph glyph-name="uni7a" unicode="&#x7a;" d="M410 427L42 427L42 496L521 496L521 428L148 69L538 69L538 0L37 0L37 68L410 427Z"  horiz-adv-x="568" vert-adv-y="1000"  />

      
      <glyph glyph-name="uniaa" unicode="&#xaa;" d="M44 423Q44 453 53 476Q62 499 83 516Q104 533 138.50 543Q173 553 224 556L423 564L423 589Q423 643 390 668.50Q357 694 285 694Q225 694 188 678.50Q151 663 141 618L58 618Q79 752 285 752Q504 752 504 589L504 307L427 307L427 394Q400 347 347 322Q294 297 223 297Q132 297 88 330Q44 363 44 423M238 356Q273 356 306 363.50Q339 371 365 388.50Q391 406 407 434.50Q423 463 423 504L423 514L235 506Q177 503 151 486.50Q125 470 125 433L125 424Q125 392 150.50 374Q176 356 238 356Z"  horiz-adv-x="567" vert-adv-y="1000"  />

      
      <glyph glyph-name="uniba" unicode="&#xba;" d="M468 550Q468 625 425.50 657.50Q383 690 297 690Q125 690 125 550L125 504Q125 426 167.50 392.50Q210 359 297 359Q384 359 426 394Q468 429 468 504L468 550M43 526Q43 646 108 699Q173 752 297 752Q421 752 486 699Q551 646 551 526Q551 464 534.50 420.50Q518 377 486 349.50Q454 322 406.50 309.50Q359 297 297 297Q173 297 108 350Q43 403 43 526Z"  horiz-adv-x="593" vert-adv-y="1000"  />

      
      <glyph glyph-name="uni0430" unicode="&#x0430;" d="M45 135Q45 168 55.50 194.50Q66 221 90 239.50Q114 258 153 269Q192 280 250 283L481 291L481 307Q481 380 440.50 411.50Q400 443 315 443Q248 443 206 423.50Q164 404 153 354L61 354Q74 431 136 469Q198 507 315 507Q446 507 509 460Q572 413 572 307L572 0L485 0L485 92Q456 42 395 15.50Q334-11 249-11Q138-11 91.50 28Q45 67 45 135M268 53Q311 53 350 61Q389 69 418 88Q447 107 464 137.50Q481 168 481 212L481 235L267 227Q201 223 169 205Q137 187 137 144L137 133Q137 93 168.50 73Q200 53 268 53Z"  horiz-adv-x="641" vert-adv-y="1000"  />

      
      <glyph glyph-name="uni0431" unicode="&#x0431;" d="M61 264Q61 400 76.50 488.50Q92 577 130 628.50Q168 680 233 701.50Q298 723 396 726Q483 728 529.50 730.50Q576 733 601 737L601 661Q578 656 532 654Q486 652 400 650Q327 648 279.50 636Q232 624 203 594Q174 564 160 513Q146 462 142 383Q171 437 227.50 465.50Q284 494 372 494Q502 494 569 436.50Q636 379 636 246Q636 112 564 50.50Q492-11 348-11Q277-11 223.50 4.50Q170 20 134 53Q98 86 79.50 138Q61 190 61 264M544 266Q544 353 494 390Q444 427 348 427Q254 427 203 390Q152 353 152 266L152 224Q152 134 203 94.50Q254 55 348 55Q445 55 494.50 94.50Q544 134 544 224L544 266Z"  horiz-adv-x="680" vert-adv-y="1000"  />

      
      <glyph glyph-name="uni0432" unicode="&#x0432;" d="M398 496Q486 496 524 462.50Q562 429 562 375Q562 338 544 307Q526 276 476 262Q537 249 559.50 215.50Q582 182 582 142Q582 68 541 34Q500 0 409 0L76 0L76 496L398 496M490 157Q490 192 466.50 209.50Q443 227 392 227L167 227L167 62L392 62Q443 62 466.50 79.50Q490 97 490 135L490 157M471 371Q471 400 453.50 417Q436 434 388 434L167 434L167 284L389 284Q436 284 453.50 304Q471 324 471 353L471 371Z"  horiz-adv-x="628" vert-adv-y="1000"  />

      
      <glyph glyph-name="uni0433" unicode="&#x0433;" d="M477 496L477 427L167 427L167 0L76 0L76 496L477 496Z"  horiz-adv-x="492" vert-adv-y="1000"  />

      
      <glyph glyph-name="uni0434" unicode="&#x0434;" d="M10 68L69 68Q96 111 108.50 176.50Q121 242 121 333L121 496L582 496L582 69L663 69L663-140L579-140L579 0L94 0L94-140L10-140L10 68M205 427L205 333Q205 242 193 176.50Q181 111 159 69L491 69L491 427L205 427Z"  horiz-adv-x="685" vert-adv-y="1000"  />

      
      <glyph glyph-name="uni0435" unicode="&#x0435;" d="M44 248Q44 386 115.50 446.50Q187 507 317 507Q447 507 518 450Q589 393 589 267L589 243L135 243L135 220Q135 54 317 54Q390 54 433.50 75Q477 96 494 142L584 142Q561 62 492.50 25.50Q424-11 317-11Q252-11 201.50 3.50Q151 18 116 49Q81 80 62.50 129Q44 178 44 248M317 443Q277 443 244.50 435.50Q212 428 188.50 410.50Q165 393 151.50 365.50Q138 338 135 299L498 299Q494 378 449.50 410.50Q405 443 317 443Z"  horiz-adv-x="631" vert-adv-y="1000"  />

      
      <glyph glyph-name="uni0451" unicode="&#x0451;" d="M44 248Q44 386 115.50 446.50Q187 507 317 507Q447 507 518 450Q589 393 589 267L589 243L135 243L135 220Q135 54 317 54Q390 54 433.50 75Q477 96 494 142L584 142Q561 62 492.50 25.50Q424-11 317-11Q252-11 201.50 3.50Q151 18 116 49Q81 80 62.50 129Q44 178 44 248M317 443Q277 443 244.50 435.50Q212 428 188.50 410.50Q165 393 151.50 365.50Q138 338 135 299L498 299Q494 378 449.50 410.50Q405 443 317 443M149 657Q149 709 207 709Q265 709 265 657Q265 605 207 605Q149 605 149 657M369 657Q369 709 427 709Q485 709 485 657Q485 605 427 605Q369 605 369 657Z"  horiz-adv-x="631" vert-adv-y="1000"  />

      
      <glyph glyph-name="uni0436" unicode="&#x0436;" d="M851 496L636 260L874 0L761 0L561 218L482 218L482 0L390 0L390 218L310 218L111 0L3 0L236 256L17 496L123 496L314 287L390 287L390 496L482 496L482 287L557 287L749 496L851 496Z"  horiz-adv-x="876" vert-adv-y="1000"  />

      
      <glyph glyph-name="uni0437" unicode="&#x0437;" d="M124 143Q129 95 172 73.50Q215 52 296 52Q380 52 420 71Q460 90 460 136L460 151Q460 228 326 228L217 228L217 289L324 289Q390 289 417.50 306.50Q445 324 445 359L445 376Q445 412 410 428Q375 444 296 444Q217 444 177.50 425.50Q138 407 130 365L38 365Q46 440 114 473.50Q182 507 295 507Q416 507 476.50 474.50Q537 442 537 373Q537 355 532.50 337.50Q528 320 516.50 306Q505 292 485 280.50Q465 269 435 263Q494 250 522.50 219.50Q551 189 551 143Q551 63 488 26Q425-11 296-11Q179-11 108.50 24.50Q38 60 32 143L124 143Z"  horiz-adv-x="595" vert-adv-y="1000"  />

      
      <glyph glyph-name="uni0438" unicode="&#x0438;" d="M167 496L167 96L493 496L596 496L596 0L505 0L505 400L179 0L76 0L76 496L167 496Z"  horiz-adv-x="672" vert-adv-y="1000"  />

      
      <glyph glyph-name="uni0439" unicode="&#x0439;" d="M167 496L167 96L493 496L596 496L596 0L505 0L505 400L179 0L76 0L76 496L167 496M242 735Q242 683 263.50 658Q285 633 335 633Q428 633 428 735L508 735Q507 656 463 616Q419 576 335 576Q163 576 162 735L242 735Z"  horiz-adv-x="672" vert-adv-y="1000"  />

      
      <glyph glyph-name="uni043A" unicode="&#x043A;" d="M576 496L336 259L601 0L483 0L260 218L167 218L167 0L76 0L76 496L167 496L167 287L257 287L469 496L576 496Z"  horiz-adv-x="596" vert-adv-y="1000"  />

      
      <glyph glyph-name="uni043B" unicode="&#x043B;" d="M16 77L27 77Q52 77 70 84.50Q88 92 99.50 114Q111 136 116.50 175.50Q122 215 122 279L122 496L566 496L566 0L475 0L475 427L205 427L205 278Q205 192 196 138Q187 84 166.50 53.50Q146 23 113.50 11.50Q81 0 34 0L16 0L16 77Z"  horiz-adv-x="642" vert-adv-y="1000"  />

      
      <glyph glyph-name="uni043C" unicode="&#x043C;" d="M158 423L158 0L76 0L76 496L210 496L404 106L599 496L728 496L728 0L638 0L638 424L444 36L351 36L158 423Z"  horiz-adv-x="804" vert-adv-y="1000"  />

      
      <glyph glyph-name="uni043D" unicode="&#x043D;" d="M167 496L167 288L496 288L496 496L587 496L587 0L496 0L496 219L167 219L167 0L76 0L76 496L167 496Z"  horiz-adv-x="663" vert-adv-y="1000"  />

      
      <glyph glyph-name="uni043E" unicode="&#x043E;" d="M528 274Q528 363 478 402Q428 441 332 441Q235 441 185.50 402Q136 363 136 274L136 223Q136 134 185.50 94.50Q235 55 332 55Q428 55 478 94.50Q528 134 528 223L528 274M44 248Q44 319 63 368.50Q82 418 119 448.50Q156 479 209.50 493Q263 507 332 507Q402 507 455.50 493Q509 479 545.50 448.50Q582 418 601 368.50Q620 319 620 248Q620 176 601 127Q582 78 545.50 47Q509 16 455.50 2.50Q402-11 332-11Q263-11 209.50 2.50Q156 16 119 47Q82 78 63 127Q44 176 44 248Z"  horiz-adv-x="664" vert-adv-y="1000"  />

      
      <glyph glyph-name="uni043F" unicode="&#x043F;" d="M577 496L577 0L485 0L485 427L167 427L167 0L76 0L76 496L577 496Z"  horiz-adv-x="653" vert-adv-y="1000"  />

      
      <glyph glyph-name="uni0440" unicode="&#x0440;" d="M164 496L164 405Q194 459 249 483Q304 507 384 507Q448 507 498 493Q548 479 582 448Q616 417 633.50 367.50Q651 318 651 248Q651 178 633.50 128.50Q616 79 582 48Q548 17 498 3Q448-11 384-11Q306-11 252 11.50Q198 34 167 84L167-200L76-200L76 496L164 496M559 275Q559 365 508 403Q457 441 363 441Q269 441 219 404Q169 367 167 283L167 222Q167 134 218 94.50Q269 55 363 55Q457 55 508 92.50Q559 130 559 222L559 275Z"  horiz-adv-x="695" vert-adv-y="1000"  />

      
      <glyph glyph-name="uni0441" unicode="&#x0441;" d="M44 247Q44 383 111.50 445Q179 507 320 507Q435 507 501 469.50Q567 432 581 351L489 351Q473 401 433.50 421Q394 441 320 441Q224 441 180 402Q136 363 136 275L136 220Q136 129 184 92Q232 55 320 55Q397 55 436.50 77.50Q476 100 490 143L582 143Q550-11 320-11Q253-11 201.50 2.50Q150 16 115 46Q80 76 62 125.50Q44 175 44 247Z"  horiz-adv-x="617" vert-adv-y="1000"  />

      
      <glyph glyph-name="uni0442" unicode="&#x0442;" d="M15 427L15 496L531 496L531 427L319 427L319 0L228 0L228 427L15 427Z"  horiz-adv-x="547" vert-adv-y="1000"  />

      
      <glyph glyph-name="uni0443" unicode="&#x0443;" d="M105 496L310 84L510 496L596 496L318-72Q301-108 283.50-132.50Q266-157 245.50-172Q225-187 198.50-193.50Q172-200 137-200L69-200L69-131L128-131Q151-131 168-127.50Q185-124 198-115.50Q211-107 221.50-92.50Q232-78 243-55L264-11L8 496L105 496Z"  horiz-adv-x="604" vert-adv-y="1000"  />

      
      <glyph glyph-name="uni045E" unicode="&#x045E;" d="M105 496L310 84L510 496L596 496L318-72Q301-108 283.50-132.50Q266-157 245.50-172Q225-187 198.50-193.50Q172-200 137-200L69-200L69-131L128-131Q151-131 168-127.50Q185-124 198-115.50Q211-107 221.50-92.50Q232-78 243-55L264-11L8 496L105 496M213 735Q213 683 234.50 658Q256 633 306 633Q399 633 399 735L479 735Q478 656 434 616Q390 576 306 576Q134 576 133 735L213 735Z"  horiz-adv-x="604" vert-adv-y="1000"  />

      
      <glyph glyph-name="uni0444" unicode="&#x0444;" d="M376-11Q296-11 234.50 2Q173 15 130 46Q87 77 65 126.50Q43 176 43 248Q43 318 65 367.50Q87 417 130 448Q173 479 234.50 493Q296 507 376 507L376 730L468 730L468 507Q547 507 609 493Q671 479 714 448Q757 417 779 367.50Q801 318 801 248Q801 176 779 126.50Q757 77 714 46.50Q671 16 609 2.50Q547-11 468-11L468-200L376-200L376-11M376 441Q262 441 198.50 403Q135 365 135 272L135 227Q135 134 197.50 94.50Q260 55 376 55L376 441M709 272Q709 318 693 350.50Q677 383 646 403Q615 423 570.50 432Q526 441 468 441L468 55Q583 55 646 94.50Q709 134 709 227L709 272Z"  horiz-adv-x="844" vert-adv-y="1000"  />

      
      <glyph glyph-name="uni0445" unicode="&#x0445;" d="M291 202L105 0L7 0L238 250L13 496L123 496L299 306L476 496L574 496L351 255L584 0L475 0L291 202Z"  horiz-adv-x="590" vert-adv-y="1000"  />

      
      <glyph glyph-name="uni0446" unicode="&#x0446;" d="M573 0L76 0L76 496L167 496L167 69L485 69L485 496L577 496L577 69L658 69L658-140L573-140L573 0Z"  horiz-adv-x="680" vert-adv-y="1000"  />

      
      <glyph glyph-name="uni0447" unicode="&#x0447;" d="M448 203Q413 198 371.50 195Q330 192 283 192Q217 192 171 202.50Q125 213 96 235.50Q67 258 54 293.50Q41 329 41 380L41 496L132 496L132 383Q132 347 141.50 323.50Q151 300 171.50 286.50Q192 273 224.50 267.50Q257 262 303 262Q345 262 380.50 264.50Q416 267 448 272L448 496L540 496L540 0L448 0L448 203L448 203Z"  horiz-adv-x="616" vert-adv-y="1000"  />

      
      <glyph glyph-name="uni0448" unicode="&#x0448;" d="M167 496L167 69L414 69L414 496L505 496L505 69L752 69L752 496L843 496L843 0L76 0L76 496L167 496Z"  horiz-adv-x="919" vert-adv-y="1000"  />

      
      <glyph glyph-name="uni0449" unicode="&#x0449;" d="M167 496L167 69L414 69L414 496L505 496L505 69L752 69L752 496L843 496L843 69L929 69L929-140L845-140L845 0L76 0L76 496L167 496Z"  horiz-adv-x="946" vert-adv-y="1000"  />

      
      <glyph glyph-name="uni044A" unicode="&#x044A;" d="M159 427L16 427L16 496L251 496L251 322L483 322Q573 322 616 282.50Q659 243 659 166Q659 86 616 43Q573 0 483 0L159 0L159 427M567 178Q567 214 545 235.50Q523 257 469 257L251 257L251 65L469 65Q523 65 545 88.50Q567 112 567 154L567 178Z"  horiz-adv-x="690" vert-adv-y="1000"  />

      
      <glyph glyph-name="uni044B" unicode="&#x044B;" d="M76 496L167 496L167 322L400 322Q490 322 533 282.50Q576 243 576 166Q576 86 533 43Q490 0 400 0L76 0L76 496M484 178Q484 214 462 235.50Q440 257 386 257L167 257L167 65L386 65Q440 65 462 88.50Q484 112 484 154L484 178M734 496L734 0L643 0L643 496L734 496Z"  horiz-adv-x="811" vert-adv-y="1000"  />

      
      <glyph glyph-name="uni044C" unicode="&#x044C;" d="M76 496L167 496L167 322L400 322Q490 322 533 282.50Q576 243 576 166Q576 86 533 43Q490 0 400 0L76 0L76 496M484 178Q484 214 462 235.50Q440 257 386 257L167 257L167 65L386 65Q440 65 462 88.50Q484 112 484 154L484 178Z"  horiz-adv-x="606" vert-adv-y="1000"  />

      
      <glyph glyph-name="uni044D" unicode="&#x044D;" d="M216 281L482 281Q481 360 437.50 400.50Q394 441 300 441Q220 441 180 420.50Q140 400 126 354L34 354Q51 431 116 469Q181 507 300 507Q438 507 505 445.50Q572 384 572 247Q572 110 504.50 49.50Q437-11 300-11Q183-11 115 26.50Q47 64 32 146L124 146Q136 102 175 78.50Q214 55 299 55Q482 55 482 217L482 221L216 221L216 281Z"  horiz-adv-x="616" vert-adv-y="1000"  />

      
      <glyph glyph-name="uni044E" unicode="&#x044E;" d="M167 496L167 288L279 288Q284 348 305 389.50Q326 431 362 457.50Q398 484 447.50 495.50Q497 507 560 507Q629 507 681.50 493.50Q734 480 770 449Q806 418 824.50 369Q843 320 843 248Q843 176 824.50 126.50Q806 77 770 46.50Q734 16 681.50 2.50Q629-11 560-11Q496-11 445.50 1Q395 13 359 40.50Q323 68 302.50 112Q282 156 279 220L167 220L167 0L76 0L76 496L167 496M751 273Q751 319 738.50 351.50Q726 384 701.50 403.50Q677 423 641.50 432Q606 441 560 441Q469 441 419.50 403.50Q370 366 370 273L370 223Q370 130 419.50 92.50Q469 55 560 55Q606 55 641.50 64Q677 73 701.50 92.50Q726 112 738.50 144Q751 176 751 223L751 273Z"  horiz-adv-x="887" vert-adv-y="1000"  />

      
      <glyph glyph-name="uni044F" unicode="&#x044F;" d="M263 187L134 0L35 0L171 196Q108 207 77 244Q46 281 46 340Q46 413 89 454.50Q132 496 220 496L544 496L544 0L453 0L453 187L263 187M233 431Q188 431 163 411Q138 391 138 353L138 326Q138 289 162.50 270.50Q187 252 233 252L453 252L453 431L233 431Z"  horiz-adv-x="620" vert-adv-y="1000"  />

      
      <glyph glyph-name="uni0454" unicode="&#x0454;" d="M44 247Q44 386 114 446.50Q184 507 321 507Q555 507 584 351L492 351Q476 399 436 420Q396 441 321 441Q230 441 183.50 404Q137 367 135 282L399 282L399 221L135 221L135 220Q135 129 181.50 92Q228 55 321 55Q360 55 389 60.50Q418 66 438.50 77Q459 88 472 104.50Q485 121 494 143L586 143Q566 65 502.50 27Q439-11 321-11Q252-11 200.50 2.50Q149 16 114 46.50Q79 77 61.50 126.50Q44 176 44 247Z"  horiz-adv-x="618" vert-adv-y="1000"  />

      
      <glyph glyph-name="uni0456" unicode="&#x0456;" d="M61 657Q61 683 76.50 696.50Q92 710 121 710Q182 710 182 657Q182 604 121 604Q92 604 76.50 617.50Q61 631 61 657M167 496L167 0L76 0L76 496L167 496Z"  horiz-adv-x="243" vert-adv-y="1000"  />

      
      <glyph glyph-name="uni0457" unicode="&#x0457;" d="M17 657Q17 710 65 710Q114 710 114 657Q114 604 65 604Q17 604 17 657M130 657Q130 710 178 710Q226 710 226 657Q226 604 178 604Q130 604 130 657M167 496L167 0L76 0L76 496L167 496Z"  horiz-adv-x="243" vert-adv-y="1000"  />

      
      <glyph glyph-name="uni0458" unicode="&#x0458;" d="M61 657Q61 683 76.50 696.50Q92 710 121 710Q182 710 182 657Q182 604 121 604Q92 604 76.50 617.50Q61 631 61 657M11-131Q47-131 61.50-113.50Q76-96 76-63L76 496L167 496L167-68Q167-133 138-166.50Q109-200 32-200L-41-200L-41-131L11-131Z"  horiz-adv-x="243" vert-adv-y="1000"  />

      
      <glyph glyph-name="uni0491" unicode="&#x0491;" d="M395 496L395 636L477 636L477 427L167 427L167 0L76 0L76 496L395 496Z"  horiz-adv-x="492" vert-adv-y="1000"  />

      
      <glyph glyph-name="uni02BC" unicode="&#x02BC;" d="M65 515Q93 515 105.50 528.50Q118 542 118 572L118 588L114 588Q53 588 53 645Q53 701 115 701Q179 701 179 642L179 579Q179 516 151.50 488.50Q124 461 65 461L65 515L65 515Z"  horiz-adv-x="232" vert-adv-y="1000"  />

      
      <glyph glyph-name="uni30" unicode="&#x30;" d="M642 382Q642 508 581 566Q520 624 397 624Q274 624 213 566.50Q152 509 152 382L152 316Q152 66 397 66Q642 66 642 316L642 382M54 347Q54 442 77 509Q100 576 144 619Q188 662 252 681.50Q316 701 397 701Q478 701 542 681.50Q606 662 650 619Q694 576 717 509Q740 442 740 347Q740 253 717 185.50Q694 118 650 74.50Q606 31 542 10Q478-11 397-11Q316-11 252 10Q188 31 144 74.50Q100 118 77 185.50Q54 253 54 347Z"  horiz-adv-x="794" vert-adv-y="1000"  />

      
      <glyph glyph-name="uni31" unicode="&#x31;" d="M187 690L284 690L284 0L187 0L187 602L27 501L27 591L187 690Z"  horiz-adv-x="371" vert-adv-y="1000"  />

      
      <glyph glyph-name="uni32" unicode="&#x32;" d="M49 37Q49 107 69.50 154.50Q90 202 124 233Q158 264 201 283.50Q244 303 289 317Q334 331 377 343Q420 355 454 373Q488 391 508.50 417.50Q529 444 529 487L529 514Q529 545 516 566.50Q503 588 480 601Q457 614 424 619.50Q391 625 352 625Q259 625 211.50 596Q164 567 156 491L57 491Q62 549 84 589.50Q106 630 144 654.50Q182 679 234.50 690Q287 701 353 701Q416 701 467 690.50Q518 680 554 656Q590 632 609 594Q628 556 628 501Q628 442 608 403.50Q588 365 555 340Q522 315 480 299.50Q438 284 393.50 271Q349 258 306 245Q263 232 229 211.50Q195 191 172.50 159.50Q150 128 147 79L630 79L630 0L49 0L49 37L49 37Z"  horiz-adv-x="684" vert-adv-y="1000"  />

      
      <glyph glyph-name="uni33" unicode="&#x33;" d="M138 196Q149 130 200.50 98Q252 66 352 66Q458 66 504.50 96Q551 126 551 183L551 212Q551 271 499.50 297.50Q448 324 357 324L284 324L284 398L356 398Q439 398 482 421.50Q525 445 525 498L525 526Q525 582 480.50 603.50Q436 625 353 625Q268 625 221.50 599.50Q175 574 163 511L64 511Q76 612 150.50 656.50Q225 701 352 701Q415 701 465 691.50Q515 682 550 660.50Q585 639 603.50 605Q622 571 622 522Q622 457 587 419Q552 381 489 365Q563 351 605.50 311Q648 271 648 198Q648 86 571 37.50Q494-11 352-11Q201-11 125.50 40Q50 91 39 196L138 196Z"  horiz-adv-x="701" vert-adv-y="1000"  />

      
      <glyph glyph-name="uni34" unicode="&#x34;" d="M441 690L579 690L579 255L704 255L704 180L579 180L579 0L482 0L482 180L23 180L23 239L441 690M482 255L482 626L140 255L482 255Z"  horiz-adv-x="732" vert-adv-y="1000"  />

      
      <glyph glyph-name="uni35" unicode="&#x35;" d="M148 170Q165 115 215.50 90.50Q266 66 354 66Q448 66 499 99.50Q550 133 550 210L550 241Q550 313 500 346Q450 379 356 379Q295 379 243 362.50Q191 346 156 306L68 321L105 690L609 690L609 612L180 612L156 377Q187 408 241.50 428Q296 448 372 448Q648 448 648 225Q648 107 576 48Q504-11 354-11Q216-11 137.50 34Q59 79 47 170L148 170Z"  horiz-adv-x="695" vert-adv-y="1000"  />

      
      <glyph glyph-name="uni36" unicode="&#x36;" d="M55 296Q55 416 78.50 494.50Q102 573 145.50 618.50Q189 664 250.50 682.50Q312 701 389 701Q458 701 509.50 689Q561 677 596.50 654.50Q632 632 652 601Q672 570 677 531L580 531Q567 577 522 601Q477 625 387 625Q329 625 286 612.50Q243 600 214 568.50Q185 537 170 484.50Q155 432 153 351Q185 396 247.50 420.50Q310 445 404 445Q545 445 621.50 393Q698 341 698 223Q698 102 617.50 45.50Q537-11 384-11Q300-11 238 5Q176 21 135.50 57.50Q95 94 75 152.50Q55 211 55 296M600 236Q600 311 548 343Q496 375 384 375Q271 375 214 339.50Q157 304 157 227Q157 147 209 105.50Q261 64 384 64Q496 64 548 98Q600 132 600 205L600 236Z"  horiz-adv-x="745" vert-adv-y="1000"  />

      
      <glyph glyph-name="uni37" unicode="&#x37;" d="M20 690L583 690L583 626L220 0L120 0L476 610L20 610L20 690Z"  horiz-adv-x="603" vert-adv-y="1000"  />

      
      <glyph glyph-name="uni38" unicode="&#x38;" d="M51 193Q51 265 94 309Q137 353 218 369Q145 383 112.50 421.50Q80 460 80 520Q80 571 101.50 605.50Q123 640 162 661.50Q201 683 254.50 692Q308 701 373 701Q437 701 491 692Q545 683 584 661.50Q623 640 644.50 605.50Q666 571 666 520Q666 460 634.50 421.50Q603 383 531 369Q610 353 652.50 309Q695 265 695 193Q695 84 612.50 36.50Q530-11 373-11Q215-11 133 36.50Q51 84 51 193M598 208Q598 272 542.50 300.50Q487 329 373 329Q260 329 204.50 301Q149 273 149 209L149 182Q149 119 205 91Q261 63 373 63Q486 63 542 91Q598 119 598 182L598 208M569 521Q569 548 559 568Q549 588 526 601Q503 614 465.50 620.50Q428 627 373 627Q319 627 281.50 620.50Q244 614 220.50 601Q197 588 187 568Q177 548 177 521L177 499Q177 474 187 455Q197 436 220.50 423Q244 410 281.50 403.50Q319 397 373 397Q428 397 465.50 403.50Q503 410 526 423Q549 436 559 455Q569 474 569 499L569 521Z"  horiz-adv-x="746" vert-adv-y="1000"  />

      
      <glyph glyph-name="uni39" unicode="&#x39;" d="M690 394Q690 274 666.50 195.50Q643 117 599.50 71.50Q556 26 494.50 7.50Q433-11 356-11Q218-11 148 35.50Q78 82 68 159L165 159Q178 113 223 89Q268 65 358 65Q416 65 459 77.50Q502 90 531 121.50Q560 153 575 205.50Q590 258 592 339Q560 294 497.50 269.50Q435 245 341 245Q270 245 215.50 257.50Q161 270 123.50 297Q86 324 66.50 366Q47 408 47 467Q47 588 127.50 644.50Q208 701 361 701Q445 701 507 685Q569 669 609.50 632.50Q650 596 670 537.50Q690 479 690 394M145 454Q145 379 197 347Q249 315 361 315Q474 315 531 350.50Q588 386 588 463Q588 543 536 584.50Q484 626 361 626Q249 626 197 592Q145 558 145 485L145 454Z"  horiz-adv-x="745" vert-adv-y="1000"  />

      
      <glyph glyph-name="unibc" unicode="&#xbc;" d="M683 690L773 690L199 0L108 0L683 690M143 690L220 690L220 265L143 265L143 618L30 545L30 618L143 690M735 425L854 425L854 159L934 159L934 95L854 95L854 0L774 0L774 95L479 95L479 149L735 425M774 159L774 374L574 159L774 159Z"  horiz-adv-x="965" vert-adv-y="1000"  />

      
      <glyph glyph-name="unibd" unicode="&#xbd;" d="M681 690L771 690L197 0L106 0L681 690M143 690L220 690L220 265L143 265L143 618L30 545L30 618L143 690M585 23Q585 85 608.50 122Q632 159 667.50 179.50Q703 200 744.50 210.50Q786 221 821.50 230.50Q857 240 880.50 254.50Q904 269 904 299L904 312Q904 345 875 358.50Q846 372 796 372Q738 372 710 354.50Q682 337 674 302L593 302Q601 372 653.50 404Q706 436 797 436Q837 436 871 429.50Q905 423 930.50 408Q956 393 970.50 369Q985 345 985 310Q985 265 963 239.50Q941 214 907 199Q873 184 833.50 175.50Q794 167 758 155Q722 143 696 122.50Q670 102 664 65L985 65L985 0L585 0L585 23L585 23Z"  horiz-adv-x="1034" vert-adv-y="1000"  />

      
      <glyph glyph-name="unibe" unicode="&#xbe;" d="M849 690L939 690L365 0L274 0L849 690M893 425L1012 425L1012 159L1092 159L1092 95L1012 95L1012 0L932 0L932 95L637 95L637 149L893 425M932 159L932 374L732 159L932 159M120 389Q131 352 160.50 335Q190 318 256 318Q316 318 346.50 331.50Q377 345 377 377L377 394Q377 426 343.50 439.50Q310 453 253 453L194 453L194 514L253 514Q306 514 334 527Q362 540 362 572L362 583Q362 612 336 624.50Q310 637 255 637Q195 637 168 621Q141 605 133 575L52 575Q60 638 114 669.50Q168 701 256 701Q297 701 331.50 694.50Q366 688 391 674.50Q416 661 430 639Q444 617 444 587Q444 545 418 521.50Q392 498 347 488Q396 479 427.50 454.50Q459 430 459 384Q459 349 444.50 324Q430 299 403.50 283.50Q377 268 339.50 261Q302 254 256 254Q159 254 103 285.50Q47 317 38 389L120 389Z"  horiz-adv-x="1124" vert-adv-y="1000"  />

      
      <glyph glyph-name="uni2153" unicode="&#x2153;" d="M683 690L773 690L199 0L108 0L683 690M143 690L220 690L220 265L143 265L143 618L30 545L30 618L143 690M657 124Q668 87 697.50 70Q727 53 793 53Q853 53 883.50 66.50Q914 80 914 112L914 129Q914 161 880.50 174.50Q847 188 790 188L731 188L731 249L790 249Q843 249 871 262Q899 275 899 307L899 318Q899 347 873 359.50Q847 372 792 372Q732 372 705 356Q678 340 670 310L589 310Q597 373 651 404.50Q705 436 793 436Q834 436 868.50 429.50Q903 423 928 409.50Q953 396 967 374Q981 352 981 322Q981 280 955 256.50Q929 233 884 223Q933 214 964.50 189.50Q996 165 996 119Q996 84 981.50 59Q967 34 940.50 18.50Q914 3 876.50-4Q839-11 793-11Q696-11 640 20.50Q584 52 575 124L657 124Z"  horiz-adv-x="1041" vert-adv-y="1000"  />

      
      <glyph glyph-name="uni2154" unicode="&#x2154;" d="M867 690L957 690L383 0L292 0L867 690M833 124Q844 87 873.50 70Q903 53 969 53Q1029 53 1059.50 66.50Q1090 80 1090 112L1090 129Q1090 161 1056.50 174.50Q1023 188 966 188L907 188L907 249L966 249Q1019 249 1047 262Q1075 275 1075 307L1075 318Q1075 347 1049 359.50Q1023 372 968 372Q908 372 881 356Q854 340 846 310L765 310Q773 373 827 404.50Q881 436 969 436Q1010 436 1044.50 429.50Q1079 423 1104 409.50Q1129 396 1143 374Q1157 352 1157 322Q1157 280 1131 256.50Q1105 233 1060 223Q1109 214 1140.50 189.50Q1172 165 1172 119Q1172 84 1157.50 59Q1143 34 1116.50 18.50Q1090 3 1052.50-4Q1015-11 969-11Q872-11 816 20.50Q760 52 751 124L833 124M43 288Q43 350 66.50 387Q90 424 125.50 444.50Q161 465 202.50 475.50Q244 486 279.50 495.50Q315 505 338.50 519.50Q362 534 362 564L362 577Q362 610 333 623.50Q304 637 254 637Q196 637 168 619.50Q140 602 132 567L51 567Q59 637 111.50 669Q164 701 255 701Q295 701 329 694.50Q363 688 388.50 673Q414 658 428.50 634Q443 610 443 575Q443 530 421 504.50Q399 479 365 464Q331 449 291.50 440.50Q252 432 216 420Q180 408 154 387.50Q128 367 122 330L443 330L443 265L43 265L43 288L43 288Z"  horiz-adv-x="1216" vert-adv-y="1000"  />

      
      <glyph glyph-name="uni215B" unicode="&#x215B;" d="M684 690L774 690L200 0L109 0L684 690M143 690L220 690L220 265L143 265L143 618L30 545L30 618L143 690M584 120Q584 162 610.50 188Q637 214 686 224Q641 235 620 260.50Q599 286 599 320Q599 353 614.50 375Q630 397 658 410.50Q686 424 725 430Q764 436 810 436Q856 436 894 430Q932 424 959.50 410.50Q987 397 1002.50 375Q1018 353 1018 320Q1018 285 997 260Q976 235 931 225Q980 215 1007.50 189Q1035 163 1035 120Q1035 51 978.50 20Q922-11 810-11Q698-11 641 20Q584 51 584 120M954 126Q954 161 919 177Q884 193 809 193Q665 193 665 128L665 114Q665 79 701 64Q737 49 809 49Q881 49 917.50 63.50Q954 78 954 113L954 126M938 319Q938 348 909 362Q880 376 809 376Q739 376 709 362Q679 348 679 319L679 310Q679 281 709.50 267Q740 253 809 253Q879 253 908.50 267.50Q938 282 938 311L938 319Z"  horiz-adv-x="1079" vert-adv-y="1000"  />

      
      <glyph glyph-name="uni215C" unicode="&#x215C;" d="M851 690L941 690L367 0L276 0L851 690M120 389Q131 352 160.50 335Q190 318 256 318Q316 318 346.50 331.50Q377 345 377 377L377 394Q377 426 343.50 439.50Q310 453 253 453L194 453L194 514L253 514Q306 514 334 527Q362 540 362 572L362 583Q362 612 336 624.50Q310 637 255 637Q195 637 168 621Q141 605 133 575L52 575Q60 638 114 669.50Q168 701 256 701Q297 701 331.50 694.50Q366 688 391 674.50Q416 661 430 639Q444 617 444 587Q444 545 418 521.50Q392 498 347 488Q396 479 427.50 454.50Q459 430 459 384Q459 349 444.50 324Q430 299 403.50 283.50Q377 268 339.50 261Q302 254 256 254Q159 254 103 285.50Q47 317 38 389L120 389M744 120Q744 162 770.50 188Q797 214 846 224Q801 235 780 260.50Q759 286 759 320Q759 353 774.50 375Q790 397 818 410.50Q846 424 885 430Q924 436 970 436Q1016 436 1054 430Q1092 424 1119.50 410.50Q1147 397 1162.50 375Q1178 353 1178 320Q1178 285 1157 260Q1136 235 1091 225Q1140 215 1167.50 189Q1195 163 1195 120Q1195 51 1138.50 20Q1082-11 970-11Q858-11 801 20Q744 51 744 120M1114 126Q1114 161 1079 177Q1044 193 969 193Q825 193 825 128L825 114Q825 79 861 64Q897 49 969 49Q1041 49 1077.50 63.50Q1114 78 1114 113L1114 126M1098 319Q1098 348 1069 362Q1040 376 969 376Q899 376 869 362Q839 348 839 319L839 310Q839 281 869.50 267Q900 253 969 253Q1039 253 1068.50 267.50Q1098 282 1098 311L1098 319Z"  horiz-adv-x="1239" vert-adv-y="1000"  />

      
      <glyph glyph-name="uni215D" unicode="&#x215D;" d="M121 380Q131 346 162 331.50Q193 317 255 317Q325 317 356 334.50Q387 352 387 395L387 411Q387 453 355 469Q323 485 254 485Q168 485 123 449L55 461L79 690L441 690L441 625L142 625L130 510Q153 524 188.50 534Q224 544 272 544Q316 544 352 537Q388 530 414 513.50Q440 497 454 470.50Q468 444 468 405Q468 322 413 288Q358 254 256 254Q159 254 104 282.50Q49 311 39 380L121 380M850 690L940 690L366 0L275 0L850 690M742 120Q742 162 768.50 188Q795 214 844 224Q799 235 778 260.50Q757 286 757 320Q757 353 772.50 375Q788 397 816 410.50Q844 424 883 430Q922 436 968 436Q1014 436 1052 430Q1090 424 1117.50 410.50Q1145 397 1160.50 375Q1176 353 1176 320Q1176 285 1155 260Q1134 235 1089 225Q1138 215 1165.50 189Q1193 163 1193 120Q1193 51 1136.50 20Q1080-11 968-11Q856-11 799 20Q742 51 742 120M1112 126Q1112 161 1077 177Q1042 193 967 193Q823 193 823 128L823 114Q823 79 859 64Q895 49 967 49Q1039 49 1075.50 63.50Q1112 78 1112 113L1112 126M1096 319Q1096 348 1067 362Q1038 376 967 376Q897 376 867 362Q837 348 837 319L837 310Q837 281 867.50 267Q898 253 967 253Q1037 253 1066.50 267.50Q1096 282 1096 311L1096 319Z"  horiz-adv-x="1238" vert-adv-y="1000"  />

      
      <glyph glyph-name="uni215E" unicode="&#x215E;" d="M25 690L433 690L433 637L188 265L102 265L339 624L25 624L25 690M711 690L801 690L227 0L136 0L711 690M612 120Q612 162 638.50 188Q665 214 714 224Q669 235 648 260.50Q627 286 627 320Q627 353 642.50 375Q658 397 686 410.50Q714 424 753 430Q792 436 838 436Q884 436 922 430Q960 424 987.50 410.50Q1015 397 1030.50 375Q1046 353 1046 320Q1046 285 1025 260Q1004 235 959 225Q1008 215 1035.50 189Q1063 163 1063 120Q1063 51 1006.50 20Q950-11 838-11Q726-11 669 20Q612 51 612 120M982 126Q982 161 947 177Q912 193 837 193Q693 193 693 128L693 114Q693 79 729 64Q765 49 837 49Q909 49 945.50 63.50Q982 78 982 113L982 126M966 319Q966 348 937 362Q908 376 837 376Q767 376 737 362Q707 348 707 319L707 310Q707 281 737.50 267Q768 253 837 253Q907 253 936.50 267.50Q966 282 966 311L966 319Z"  horiz-adv-x="1105" vert-adv-y="1000"  />

      
      <glyph glyph-name="uni2080" unicode="&#x2080;" d="M280-28Q355-28 395 6.50Q435 41 435 111L435 152Q435 224 394.50 255.50Q354 287 280 287Q205 287 165 255.50Q125 224 125 152L125 111Q125 40 165 6Q205-28 280-28M280-94Q227-94 184-81Q141-68 109.50-40.50Q78-13 61 29.50Q44 72 44 131Q44 191 61 233.50Q78 276 109.50 302.50Q141 329 184 341Q227 353 280 353Q333 353 376.50 341Q420 329 451 302.50Q482 276 499 233.50Q516 191 516 131Q516 72 499 29.50Q482-13 451-40.50Q420-68 376.50-81Q333-94 280-94Z"  horiz-adv-x="560" vert-adv-y="1000"  />

      
      <glyph glyph-name="uni2081" unicode="&#x2081;" d="M140 342L217 342L217-83L140-83L140 270L27 197L27 270L140 342Z"  horiz-adv-x="291" vert-adv-y="1000"  />

      
      <glyph glyph-name="uni2082" unicode="&#x2082;" d="M40-60Q40 2 63.50 39Q87 76 122.50 96.50Q158 117 199.50 127.50Q241 138 276.50 147.50Q312 157 335.50 171.50Q359 186 359 216L359 229Q359 262 330 275.50Q301 289 251 289Q193 289 165 271.50Q137 254 129 219L48 219Q56 289 108.50 321Q161 353 252 353Q292 353 326 346.50Q360 340 385.50 325Q411 310 425.50 286Q440 262 440 227Q440 182 418 156.50Q396 131 362 116Q328 101 288.50 92.50Q249 84 213 72Q177 60 151 39.50Q125 19 119-18L440-18L440-83L40-83L40-60L40-60Z"  horiz-adv-x="486" vert-adv-y="1000"  />

      
      <glyph glyph-name="uni2083" unicode="&#x2083;" d="M117 41Q128 4 157.50-13Q187-30 253-30Q313-30 343.50-16.50Q374-3 374 29L374 46Q374 78 340.50 91.50Q307 105 250 105L191 105L191 166L250 166Q303 166 331 179Q359 192 359 224L359 235Q359 264 333 276.50Q307 289 252 289Q192 289 165 273Q138 257 130 227L49 227Q57 290 111 321.50Q165 353 253 353Q294 353 328.50 346.50Q363 340 388 326.50Q413 313 427 291Q441 269 441 239Q441 197 415 173.50Q389 150 344 140Q393 131 424.50 106.50Q456 82 456 36Q456 1 441.50-24Q427-49 400.50-64.50Q374-80 336.50-87Q299-94 253-94Q156-94 100-62.50Q44-31 35 41L117 41Z"  horiz-adv-x="498" vert-adv-y="1000"  />

      
      <glyph glyph-name="uni2084" unicode="&#x2084;" d="M281 342L400 342L400 76L480 76L480 12L400 12L400-83L320-83L320 12L25 12L25 66L281 342M320 76L320 291L120 76L320 76Z"  horiz-adv-x="509" vert-adv-y="1000"  />

      
      <glyph glyph-name="uni2085" unicode="&#x2085;" d="M118 32Q128-2 159-16.50Q190-31 252-31Q322-31 353-13.50Q384 4 384 47L384 63Q384 105 352 121Q320 137 251 137Q165 137 120 101L52 113L76 342L438 342L438 277L139 277L127 162Q150 176 185.50 186Q221 196 269 196Q313 196 349 189Q385 182 411 165.50Q437 149 451 122.50Q465 96 465 57Q465-26 410-60Q355-94 253-94Q156-94 101-65.50Q46-37 36 32L118 32Z"  horiz-adv-x="503" vert-adv-y="1000"  />

      
      <glyph glyph-name="uni2086" unicode="&#x2086;" d="M45 118Q45 184 60.50 229Q76 274 106 301.50Q136 329 179 341Q222 353 276 353Q378 353 429.50 323Q481 293 489 244L407 244Q397 269 365.50 279.50Q334 290 277 290Q199 290 161 259Q123 228 123 150L123 137Q146 168 191 181.50Q236 195 296 195Q396 195 446.50 162Q497 129 497 54Q497-26 439.50-60Q382-94 275-94Q219-94 176-84Q133-74 104-50Q75-26 60 15Q45 56 45 118M415 65Q415 103 380 119.50Q345 136 275 136Q195 136 163.50 116.50Q132 97 132 55Q131 13 163-9.50Q195-32 274-32Q348-32 381.50-13Q415 6 415 42L415 65Z"  horiz-adv-x="538" vert-adv-y="1000"  />

      
      <glyph glyph-name="uni2087" unicode="&#x2087;" d="M22 342L430 342L430 289L185-83L99-83L336 276L22 276L22 342Z"  horiz-adv-x="449" vert-adv-y="1000"  />

      
      <glyph glyph-name="uni2088" unicode="&#x2088;" d="M43 37Q43 79 69.50 105Q96 131 145 141Q100 152 79 177.50Q58 203 58 237Q58 270 73.50 292Q89 314 117 327.50Q145 341 184 347Q223 353 269 353Q315 353 353 347Q391 341 418.50 327.50Q446 314 461.50 292Q477 270 477 237Q477 202 456 177Q435 152 390 142Q439 132 466.50 106Q494 80 494 37Q494-32 437.50-63Q381-94 269-94Q157-94 100-63Q43-32 43 37M413 43Q413 78 378 94Q343 110 268 110Q124 110 124 45L124 31Q124-4 160-19Q196-34 268-34Q340-34 376.50-19.50Q413-5 413 30L413 43M397 236Q397 265 368 279Q339 293 268 293Q198 293 168 279Q138 265 138 236L138 227Q138 198 168.50 184Q199 170 268 170Q338 170 367.50 184.50Q397 199 397 228L397 236Z"  horiz-adv-x="536" vert-adv-y="1000"  />

      
      <glyph glyph-name="uni2089" unicode="&#x2089;" d="M493 141Q493 75 477.50 30Q462-15 432-42.50Q402-70 359-82Q316-94 262-94Q160-94 108.50-64.50Q57-35 49 15L131 15Q141-10 172.50-20.50Q204-31 261-31Q339-31 377 0Q415 31 415 109L415 122Q392 91 347 77.50Q302 64 242 64Q142 64 91.50 97Q41 130 41 205Q41 285 98.50 319Q156 353 263 353Q319 353 362 343Q405 333 434 309Q463 285 478 244Q493 203 493 141M123 194Q123 156 158 139.50Q193 123 263 123Q343 123 374.50 142.50Q406 162 406 204Q407 246 375 268.50Q343 291 264 291Q190 291 156.50 272Q123 253 123 217L123 194Z"  horiz-adv-x="538" vert-adv-y="1000"  />

      
      <glyph glyph-name="uni2070" unicode="&#x2070;" d="M280 430Q355 430 395 464.50Q435 499 435 569L435 610Q435 682 394.50 713.50Q354 745 280 745Q205 745 165 713.50Q125 682 125 610L125 569Q125 498 165 464Q205 430 280 430M280 364Q227 364 184 377Q141 390 109.50 417.50Q78 445 61 487.50Q44 530 44 589Q44 649 61 691.50Q78 734 109.50 760.50Q141 787 184 799Q227 811 280 811Q333 811 376.50 799Q420 787 451 760.50Q482 734 499 691.50Q516 649 516 589Q516 530 499 487.50Q482 445 451 417.50Q420 390 376.50 377Q333 364 280 364Z"  horiz-adv-x="560" vert-adv-y="1000"  />

      
      <glyph glyph-name="uni2074" unicode="&#x2074;" d="M281 800L400 800L400 534L480 534L480 470L400 470L400 375L320 375L320 470L25 470L25 524L281 800M320 534L320 749L120 534L320 534Z"  horiz-adv-x="509" vert-adv-y="1000"  />

      
      <glyph glyph-name="uni2075" unicode="&#x2075;" d="M118 490Q128 456 159 441.50Q190 427 252 427Q322 427 353 444.50Q384 462 384 505L384 521Q384 563 352 579Q320 595 251 595Q165 595 120 559L52 571L76 800L438 800L438 735L139 735L127 620Q150 634 185.50 644Q221 654 269 654Q313 654 349 647Q385 640 411 623.50Q437 607 451 580.50Q465 554 465 515Q465 432 410 398Q355 364 253 364Q156 364 101 392.50Q46 421 36 490L118 490Z"  horiz-adv-x="503" vert-adv-y="1000"  />

      
      <glyph glyph-name="uni2076" unicode="&#x2076;" d="M45 576Q45 642 60.50 687Q76 732 106 759.50Q136 787 179 799Q222 811 276 811Q378 811 429.50 781Q481 751 489 702L407 702Q397 727 365.50 737.50Q334 748 277 748Q199 748 161 717Q123 686 123 608L123 595Q146 626 191 639.50Q236 653 296 653Q396 653 446.50 620Q497 587 497 512Q497 432 439.50 398Q382 364 275 364Q219 364 176 374Q133 384 104 408Q75 432 60 473Q45 514 45 576M415 523Q415 561 380 577.50Q345 594 275 594Q195 594 163.50 574.50Q132 555 132 513Q131 471 163 448.50Q195 426 274 426Q348 426 381.50 445Q415 464 415 500L415 523Z"  horiz-adv-x="538" vert-adv-y="1000"  />

      
      <glyph glyph-name="uni2077" unicode="&#x2077;" d="M22 800L430 800L430 747L185 375L99 375L336 734L22 734L22 800Z"  horiz-adv-x="449" vert-adv-y="1000"  />

      
      <glyph glyph-name="uni2078" unicode="&#x2078;" d="M43 495Q43 537 69.50 563Q96 589 145 599Q100 610 79 635.50Q58 661 58 695Q58 728 73.50 750Q89 772 117 785.50Q145 799 184 805Q223 811 269 811Q315 811 353 805Q391 799 418.50 785.50Q446 772 461.50 750Q477 728 477 695Q477 660 456 635Q435 610 390 600Q439 590 466.50 564Q494 538 494 495Q494 426 437.50 395Q381 364 269 364Q157 364 100 395Q43 426 43 495M413 501Q413 536 378 552Q343 568 268 568Q124 568 124 503L124 489Q124 454 160 439Q196 424 268 424Q340 424 376.50 438.50Q413 453 413 488L413 501M397 694Q397 723 368 737Q339 751 268 751Q198 751 168 737Q138 723 138 694L138 685Q138 656 168.50 642Q199 628 268 628Q338 628 367.50 642.50Q397 657 397 686L397 694Z"  horiz-adv-x="536" vert-adv-y="1000"  />

      
      <glyph glyph-name="uni2079" unicode="&#x2079;" d="M493 599Q493 533 477.50 488Q462 443 432 415.50Q402 388 359 376Q316 364 262 364Q160 364 108.50 393.50Q57 423 49 473L131 473Q141 448 172.50 437.50Q204 427 261 427Q339 427 377 458Q415 489 415 567L415 580Q392 549 347 535.50Q302 522 242 522Q142 522 91.50 555Q41 588 41 663Q41 743 98.50 777Q156 811 263 811Q319 811 362 801Q405 791 434 767Q463 743 478 702Q493 661 493 599M123 652Q123 614 158 597.50Q193 581 263 581Q343 581 374.50 600.50Q406 620 406 662Q407 704 375 726.50Q343 749 264 749Q190 749 156.50 730Q123 711 123 675L123 652Z"  horiz-adv-x="538" vert-adv-y="1000"  />

      
      <glyph glyph-name="unib9" unicode="&#xb9;" d="M140 800L217 800L217 375L140 375L140 728L27 655L27 728L140 800Z"  horiz-adv-x="291" vert-adv-y="1000"  />

      
      <glyph glyph-name="unib3" unicode="&#xb3;" d="M117 499Q128 462 157.50 445Q187 428 253 428Q313 428 343.50 441.50Q374 455 374 487L374 504Q374 536 340.50 549.50Q307 563 250 563L191 563L191 624L250 624Q303 624 331 637Q359 650 359 682L359 693Q359 722 333 734.50Q307 747 252 747Q192 747 165 731Q138 715 130 685L49 685Q57 748 111 779.50Q165 811 253 811Q294 811 328.50 804.50Q363 798 388 784.50Q413 771 427 749Q441 727 441 697Q441 655 415 631.50Q389 608 344 598Q393 589 424.50 564.50Q456 540 456 494Q456 459 441.50 434Q427 409 400.50 393.50Q374 378 336.50 371Q299 364 253 364Q156 364 100 395.50Q44 427 35 499L117 499Z"  horiz-adv-x="498" vert-adv-y="1000"  />

      
      <glyph glyph-name="unib2" unicode="&#xb2;" d="M40 398Q40 460 63.50 497Q87 534 122.50 554.50Q158 575 199.50 585.50Q241 596 276.50 605.50Q312 615 335.50 629.50Q359 644 359 674L359 687Q359 720 330 733.50Q301 747 251 747Q193 747 165 729.50Q137 712 129 677L48 677Q56 747 108.50 779Q161 811 252 811Q292 811 326 804.50Q360 798 385.50 783Q411 768 425.50 744Q440 720 440 685Q440 640 418 614.50Q396 589 362 574Q328 559 288.50 550.50Q249 542 213 530Q177 518 151 497.50Q125 477 119 440L440 440L440 375L40 375L40 398L40 398Z"  horiz-adv-x="486" vert-adv-y="1000"  />

      
      <glyph glyph-name="uni5f" unicode="&#x5f;" d="M0-54L644-54L644-123L0-123L0-54Z"  horiz-adv-x="644" vert-adv-y="1000"  />

      
      <glyph glyph-name="uni2d" unicode="&#x2d;" d="M395 299L395 217L53 217L53 299L395 299Z"  horiz-adv-x="448" vert-adv-y="1000"  />

      
      <glyph glyph-name="uni2013" unicode="&#x2013;" d="M672 293L672 220L50 220L50 293L672 293Z"  horiz-adv-x="722" vert-adv-y="1000"  />

      
      <glyph glyph-name="uni2014" unicode="&#x2014;" d="M947 293L947 220L70 220L70 293L947 293Z"  horiz-adv-x="1017" vert-adv-y="1000"  />

      
      <glyph glyph-name="uni28" unicode="&#x28;" d="M54 265Q54 388 79 475.50Q104 563 147.50 620.50Q191 678 251 707.50Q311 737 381 745L381 669Q330 661 287 635Q244 609 213.50 566Q183 523 166 463Q149 403 149 328L149 204Q149 127 166 67Q183 7 213.50-36Q244-79 287-105Q330-131 381-139L381-215Q310-207 250-177Q190-147 146.50-90Q103-33 78.50 54.50Q54 142 54 265Z"  horiz-adv-x="403" vert-adv-y="1000"  />

      
      <glyph glyph-name="uni29" unicode="&#x29;" d="M349 265Q349 142 324 54.50Q299-33 255.50-90.50Q212-148 152-177.50Q92-207 22-215L22-139Q73-131 116-105Q159-79 189.50-36Q220 7 237 67Q254 127 254 202L254 326Q254 402 237 462.50Q220 523 189.50 566Q159 609 116 635Q73 661 22 669L22 745Q93 737 153 707Q213 677 256.50 620Q300 563 324.50 475.50Q349 388 349 265Z"  horiz-adv-x="403" vert-adv-y="1000"  />

      
      <glyph glyph-name="uni5b" unicode="&#x5b;" d="M406 740L406 667L176 667L176-137L406-137L406-210L87-210L87 740L406 740Z"  horiz-adv-x="428" vert-adv-y="1000"  />

      
      <glyph glyph-name="uni5d" unicode="&#x5d;" d="M22-210L22-137L252-137L252 667L22 667L22 740L341 740L341-210L22-210Z"  horiz-adv-x="428" vert-adv-y="1000"  />

      
      <glyph glyph-name="uni7b" unicode="&#x7b;" d="M123 107Q123 162 99 191.50Q75 221 19 223L19 306Q75 308 99 339.50Q123 371 123 424L123 619Q123 683 153.50 711.50Q184 740 254 740L411 740L411 667L278 667Q242 667 226.50 653.50Q211 640 211 602L211 420Q211 392 207 366.50Q203 341 192 320.50Q181 300 159.50 285.50Q138 271 104 264Q138 259 159.50 245.50Q181 232 192 212Q203 192 207 166.50Q211 141 211 111L211-69Q211-107 226.50-122Q242-137 278-137L411-137L411-210L253-210Q184-210 153.50-181.50Q123-153 123-88L123 107Z"  horiz-adv-x="433" vert-adv-y="1000"  />

      
      <glyph glyph-name="uni7d" unicode="&#x7d;" d="M310 423Q310 368 334 338.50Q358 309 414 307L414 224Q358 222 334 190.50Q310 159 310 106L310-89Q310-153 279.50-181.50Q249-210 179-210L22-210L22-137L155-137Q191-137 206.50-123.50Q222-110 222-72L222 110Q222 138 226 163.50Q230 189 241 209.50Q252 230 273 244.50Q294 259 329 266Q294 271 273 284.50Q252 298 241 318Q230 338 226 363.50Q222 389 222 419L222 599Q222 637 206.50 652Q191 667 155 667L22 667L22 740L180 740Q249 740 279.50 711.50Q310 683 310 618L310 423Z"  horiz-adv-x="433" vert-adv-y="1000"  />

      
      <glyph glyph-name="uni23" unicode="&#x23;" d="M86 511L258 511L299 690L385 690L344 511L596 511L637 690L723 690L682 511L829 511L812 438L665 438L621 244L797 244L781 170L604 170L565 0L479 0L518 170L266 170L227 0L141 0L180 170L39 170L56 244L197 244L241 438L69 438L86 511M283 244L535 244L579 438L327 438L283 244Z"  horiz-adv-x="868" vert-adv-y="1000"  />

      
      <glyph glyph-name="uni25" unicode="&#x25;" d="M379 534Q379 593 346 614.50Q313 636 246 636Q178 636 145.50 614.50Q113 593 113 534L113 514Q113 455 146 434Q179 413 246 413Q313 413 346 434Q379 455 379 514L379 534M915 176Q915 235 882 256Q849 277 781 277Q713 277 680.50 256Q648 235 648 176L648 156Q648 97 681 75.50Q714 54 781 54Q848 54 881.50 75Q915 96 915 155L915 176M32 525Q32 617 84 659Q136 701 246 701Q356 701 408 659Q460 617 460 525Q460 433 408 390Q356 347 246 347Q136 347 84 390Q32 433 32 525M866 690L255 0L158 0L769 690L866 690M567 166Q567 258 619 300.50Q671 343 781 343Q891 343 943.50 300.50Q996 258 996 166Q996 74 943.50 31.50Q891-11 781-11Q671-11 619 31.50Q567 74 567 166Z"  horiz-adv-x="1027" vert-adv-y="1000"  />

      
      <glyph glyph-name="uni2030" unicode="&#x2030;" d="M1396 176Q1396 235 1363 256Q1330 277 1263 277Q1196 277 1163.50 256Q1131 235 1131 176L1131 156Q1131 97 1164 75.50Q1197 54 1263 54Q1329 54 1362.50 75Q1396 96 1396 155L1396 176M1050 166Q1050 258 1101.50 300.50Q1153 343 1263 343Q1373 343 1424.50 300.50Q1476 258 1476 166Q1476 74 1424.50 31.50Q1373-11 1263-11Q1153-11 1101.50 31.50Q1050 74 1050 166M379 534Q379 593 346 614.50Q313 636 246 636Q178 636 145.50 614.50Q113 593 113 534L113 514Q113 455 146 434Q179 413 246 413Q313 413 346 434Q379 455 379 514L379 534M915 176Q915 235 882 256Q849 277 781 277Q713 277 680.50 256Q648 235 648 176L648 156Q648 97 681 75.50Q714 54 781 54Q848 54 881.50 75Q915 96 915 155L915 176M32 525Q32 617 84 659Q136 701 246 701Q356 701 408 659Q460 617 460 525Q460 433 408 390Q356 347 246 347Q136 347 84 390Q32 433 32 525M866 690L255 0L158 0L769 690L866 690M567 166Q567 258 619 300.50Q671 343 781 343Q891 343 943.50 300.50Q996 258 996 166Q996 74 943.50 31.50Q891-11 781-11Q671-11 619 31.50Q567 74 567 166Z"  horiz-adv-x="1507" vert-adv-y="1000"  />

      
      <glyph glyph-name="uni27" unicode="&#x27;" d="M152 690L145 446L70 446L63 690L152 690Z"  horiz-adv-x="215" vert-adv-y="1000"  />

      
      <glyph glyph-name="uni22" unicode="&#x22;" d="M152 690L145 446L70 446L63 690L152 690M338 690L331 446L256 446L249 690L338 690Z"  horiz-adv-x="401" vert-adv-y="1000"  />

      
      <glyph glyph-name="uni2018" unicode="&#x2018;" d="M167 647Q139 647 126.50 633.50Q114 620 114 590L114 574L118 574Q179 574 179 517Q179 461 117 461Q53 461 53 520L53 583Q53 646 80.50 673.50Q108 701 167 701L167 647L167 647Z"  horiz-adv-x="232" vert-adv-y="1000"  />

      
      <glyph glyph-name="uni2019" unicode="&#x2019;" d="M65 515Q93 515 105.50 528.50Q118 542 118 572L118 588L114 588Q53 588 53 645Q53 701 115 701Q179 701 179 642L179 579Q179 516 151.50 488.50Q124 461 65 461L65 515L65 515Z"  horiz-adv-x="232" vert-adv-y="1000"  />

      
      <glyph glyph-name="uni201C" unicode="&#x201C;" d="M167 647Q139 647 126.50 633.50Q114 620 114 590L114 574L118 574Q179 574 179 517Q179 461 117 461Q53 461 53 520L53 583Q53 646 80.50 673.50Q108 701 167 701L167 647M363 647Q335 647 322.50 633.50Q310 620 310 590L310 574L314 574Q375 574 375 517Q375 461 313 461Q249 461 249 520L249 583Q249 646 276.50 673.50Q304 701 363 701L363 647Z"  horiz-adv-x="428" vert-adv-y="1000"  />

      
      <glyph glyph-name="uni201D" unicode="&#x201D;" d="M65 515Q93 515 105.50 528.50Q118 542 118 572L118 588L114 588Q53 588 53 645Q53 701 115 701Q179 701 179 642L179 579Q179 516 151.50 488.50Q124 461 65 461L65 515M261 515Q289 515 301.50 528.50Q314 542 314 572L314 588L310 588Q249 588 249 645Q249 701 311 701Q375 701 375 642L375 579Q375 516 347.50 488.50Q320 461 261 461L261 515Z"  horiz-adv-x="428" vert-adv-y="1000"  />

      
      <glyph glyph-name="uni201A" unicode="&#x201A;" d="M65-84Q93-84 105.50-70.50Q118-57 118-27L118-11L114-11Q53-11 53 46Q53 102 115 102Q179 102 179 43L179-20Q179-83 151.50-110.50Q124-138 65-138L65-84L65-84Z"  horiz-adv-x="232" vert-adv-y="1000"  />

      
      <glyph glyph-name="uni201E" unicode="&#x201E;" d="M65-84Q93-84 105.50-70.50Q118-57 118-27L118-11L114-11Q53-11 53 46Q53 102 115 102Q179 102 179 43L179-20Q179-83 151.50-110.50Q124-138 65-138L65-84M261-84Q289-84 301.50-70.50Q314-57 314-27L314-11L310-11Q249-11 249 46Q249 102 311 102Q375 102 375 43L375-20Q375-83 347.50-110.50Q320-138 261-138L261-84Z"  horiz-adv-x="428" vert-adv-y="1000"  />

      
      <glyph glyph-name="uni2039" unicode="&#x2039;" d="M44 291L281 474L281 387L114 259L282 132L282 41L44 223L44 291Z"  horiz-adv-x="343" vert-adv-y="1000"  />

      
      <glyph glyph-name="uni203A" unicode="&#x203A;" d="M299 224L62 41L62 128L229 256L61 383L61 474L299 292L299 224Z"  horiz-adv-x="343" vert-adv-y="1000"  />

      
      <glyph glyph-name="uniab" unicode="&#xab;" d="M44 291L281 474L281 387L114 259L282 132L282 41L44 223L44 291M280 291L517 474L517 387L350 259L518 132L518 41L280 223L280 291Z"  horiz-adv-x="579" vert-adv-y="1000"  />

      
      <glyph glyph-name="unibb" unicode="&#xbb;" d="M535 224L298 41L298 128L465 256L297 383L297 474L535 292L535 224M299 224L62 41L62 128L229 256L61 383L61 474L299 292L299 224Z"  horiz-adv-x="579" vert-adv-y="1000"  />

      
      <glyph glyph-name="uni2a" unicode="&#x2a;" d="M200 515L62 579L94 633L228 558L222 690L291 690L285 558L420 633L451 579L313 515L451 452L420 399L285 472L291 341L222 341L228 472L94 399L62 452L200 515Z"  horiz-adv-x="514" vert-adv-y="1000"  />

      
      <glyph glyph-name="uni2e" unicode="&#x2e;" d="M53 45Q53 102 115 102Q179 102 179 45Q179-11 115-11Q53-11 53 45Z"  horiz-adv-x="232" vert-adv-y="1000"  />

      
      <glyph glyph-name="uni2c" unicode="&#x2c;" d="M65-84Q93-84 105.50-70.50Q118-57 118-27L118-11L114-11Q53-11 53 46Q53 102 115 102Q179 102 179 43L179-20Q179-83 151.50-110.50Q124-138 65-138L65-84L65-84Z"  horiz-adv-x="232" vert-adv-y="1000"  />

      
      <glyph glyph-name="uni3a" unicode="&#x3a;" d="M53 45Q53 102 115 102Q179 102 179 45Q179-11 115-11Q53-11 53 45M53 405Q53 462 115 462Q179 462 179 405Q179 349 115 349Q53 349 53 405Z"  horiz-adv-x="232" vert-adv-y="1000"  />

      
      <glyph glyph-name="uni3b" unicode="&#x3b;" d="M53 405Q53 462 115 462Q179 462 179 405Q179 349 115 349Q53 349 53 405M65-84Q93-84 105.50-70.50Q118-57 118-27L118-11L114-11Q53-11 53 46Q53 102 115 102Q179 102 179 43L179-20Q179-83 151.50-110.50Q124-138 65-138L65-84L65-84Z"  horiz-adv-x="232" vert-adv-y="1000"  />

      
      <glyph glyph-name="uni2026" unicode="&#x2026;" d="M53 45Q53 102 115 102Q179 102 179 45Q179-11 115-11Q53-11 53 45M485 45Q485 102 547 102Q611 102 611 45Q611-11 547-11Q485-11 485 45M269 45Q269 102 331 102Q395 102 395 45Q395-11 331-11Q269-11 269 45Z"  horiz-adv-x="663" vert-adv-y="1000"  />

      
      <glyph glyph-name="uni21" unicode="&#x21;" d="M187 690L173 191L93 191L79 690L187 690M70 45Q70 102 132 102Q196 102 196 45Q196-11 132-11Q70-11 70 45Z"  horiz-adv-x="266" vert-adv-y="1000"  />

      
      <glyph glyph-name="uni3f" unicode="&#x3f;" d="M526 526Q526 625 334 625Q236 625 185 598.50Q134 572 126 508L28 508Q36 609 112.50 655Q189 701 334 701Q475 701 550 658Q625 615 625 520Q625 467 605 436.50Q585 406 555 387Q525 368 489.50 355.50Q454 343 424 326.50Q394 310 374 284.50Q354 259 354 214L354 190L267 190L267 214Q267 269 286 303.50Q305 338 334 359.50Q363 381 396.50 394.50Q430 408 459 421.50Q488 435 507 453.50Q526 472 526 504L526 526M250 45Q250 102 312 102Q376 102 376 45Q376-11 312-11Q250-11 250 45Z"  horiz-adv-x="661" vert-adv-y="1000"  />

      
      <glyph glyph-name="uni2f" unicode="&#x2f;" d="M511 740L121-95L26-95L416 740L511 740Z"  horiz-adv-x="532" vert-adv-y="1000"  />

      
      <glyph glyph-name="uni5c" unicode="&#x5c;" d="M117 740L499-95L403-95L21 740L117 740Z"  horiz-adv-x="526" vert-adv-y="1000"  />

      
      <glyph glyph-name="uni2044" unicode="&#x2044;" d="M381 690L471 690L-103 0L-194 0L381 690Z"  horiz-adv-x="281" vert-adv-y="1000"  />

      
      <glyph glyph-name="uni7c" unicode="&#x7c;" d="M173 730L173-200L84-200L84 730L173 730Z"  horiz-adv-x="257" vert-adv-y="1000"  />

      
      <glyph glyph-name="unia6" unicode="&#xa6;" d="M173 730L173 360L84 360L84 730L173 730M173 170L173-200L84-200L84 170L173 170Z"  horiz-adv-x="257" vert-adv-y="1000"  />

      
      <glyph glyph-name="uni40" unicode="&#x40;" d="M290 244Q290 372 352.50 427.50Q415 483 528 483Q593 483 640 463.50Q687 444 715 401L715 471L800 471L800 204Q800 164 806.50 139Q813 114 825.50 100.50Q838 87 856 82Q874 77 897 77Q946 77 973 113.50Q1000 150 1000 236L1000 294Q1000 387 971 452Q942 517 887.50 557Q833 597 753.50 615Q674 633 574 633Q478 633 396.50 614.50Q315 596 256.50 555Q198 514 165 447Q132 380 132 284L132 213Q132 113 167 46.50Q202-20 262-59.50Q322-99 402.50-115.50Q483-132 574-132Q604-132 640.50-129.50Q677-127 713-122Q749-117 781.50-109.50Q814-102 835-92L835-161Q815-170 786.50-177Q758-184 724-189Q690-194 651.50-197Q613-200 574-200Q467-200 371.50-180.50Q276-161 204-111Q132-61 89.50 26.50Q47 114 47 249Q47 373 86 459.50Q125 546 195 599.50Q265 653 362 677Q459 701 574 701Q691 701 785.50 677.50Q880 654 946 603Q1012 552 1048 472Q1084 392 1084 278Q1084 203 1071 152Q1058 101 1033 69.50Q1008 38 972.50 24.50Q937 11 892 11Q851 11 821.50 20.50Q792 30 772.50 45.50Q753 61 742.50 80.50Q732 100 729 120Q704 63 653.50 37Q603 11 528 11Q472 11 428 24Q384 37 353.50 65Q323 93 306.50 137Q290 181 290 244M713 271Q713 349 670 382.50Q627 416 546 416Q465 416 422.50 382Q380 348 380 269L380 221Q380 149 422.50 113Q465 77 546 77Q627 77 670 113Q713 149 713 223L713 271Z"  horiz-adv-x="1132" vert-adv-y="1000"  />

      
      <glyph glyph-name="uni26" unicode="&#x26;" d="M38 178Q38 250 84.50 297Q131 344 229 375Q180 415 151.50 453Q123 491 123 544Q123 615 179 658Q235 701 354 701Q414 701 457.50 689.50Q501 678 529.50 657.50Q558 637 571.50 608Q585 579 585 544Q585 482 534 438Q483 394 377 357L592 174Q614 206 627.50 248.50Q641 291 644 345L731 345Q727 273 707 218.50Q687 164 654 122L666 112Q681 100 694 92Q707 84 720 79Q733 74 747.50 72Q762 70 780 70L805 70L805 0L766 0Q741 0 721 3.50Q701 7 683 13.50Q665 20 648.50 30.50Q632 41 614 56L600 68Q546 26 477.50 7.50Q409-11 333-11Q254-11 198 3Q142 17 106.50 42Q71 67 54.50 101.50Q38 136 38 178M286 329Q210 306 171.50 275Q133 244 133 193L133 174Q133 117 187.50 88.50Q242 60 337 60Q397 60 448 74Q499 88 539 118L297 321L286 329M215 536Q215 502 245 471Q275 440 323 402Q406 428 449.50 460Q493 492 493 537L493 548Q493 591 454.50 611.50Q416 632 354 632Q288 632 251.50 610.50Q215 589 215 548L215 536Z"  horiz-adv-x="818" vert-adv-y="1000"  />

      
      <glyph glyph-name="unia7" unicode="&#xa7;" d="M156 13Q160-10 171-27.50Q182-45 203.50-58Q225-71 258.50-77.50Q292-84 340-84Q423-84 468-63Q513-42 513 1L513 17Q513 42 493 59.50Q473 77 439.50 89.50Q406 102 364 112Q322 122 277.50 133.50Q233 145 191 159Q149 173 115.50 194Q82 215 62 244Q42 273 42 315Q42 368 71 402Q100 436 149 459Q116 479 96 507Q76 535 76 576Q76 655 140.50 698Q205 741 335 741Q467 741 531.50 699Q596 657 603 572L508 572Q500 620 461.50 644.50Q423 669 335 669Q261 669 216 648Q171 627 171 584L171 569Q171 536 205 515.50Q239 495 290.50 479.50Q342 464 401.50 449.50Q461 435 512.50 412.50Q564 390 598 356.50Q632 323 632 270Q632 216 603.50 181.50Q575 147 531 126Q566 106 586.50 78Q607 50 607 9Q607-70 540.50-113.50Q474-157 340-157Q204-157 136-114Q68-71 60 13L156 13M541 268Q541 305 509.50 327.50Q478 350 430 365.50Q382 381 324.50 394.50Q267 408 216 427Q181 412 157 388.50Q133 365 133 331L133 316Q133 278 165 255.50Q197 233 246 217Q295 201 353.50 187.50Q412 174 464 156Q493 169 517 193Q541 217 541 253L541 268Z"  horiz-adv-x="674" vert-adv-y="1000"  />

      
      <glyph glyph-name="unib6" unicode="&#xb6;" d="M32 483Q32 541 47.50 581Q63 621 93 645Q123 669 166.50 679.50Q210 690 266 690L414 690L414-150L330-150L330 278L272 278Q215 278 170.50 288Q126 298 95.50 322Q65 346 48.50 385Q32 424 32 483M619 690L619-150L534-150L534 690L619 690Z"  horiz-adv-x="708" vert-adv-y="1000"  />

      
      <glyph glyph-name="uni2116" unicode="&#x2116;" d="M175 596L175 0L84 0L84 690L217 690L647 96L647 690L738 690L738 0L607 0L175 596M839 528Q839 618 889.50 659.50Q940 701 1046 701Q1152 701 1203 659.50Q1254 618 1254 528Q1254 437 1203 394Q1152 351 1046 351Q940 351 889.50 394Q839 437 839 528M1173 537Q1173 595 1142 615.50Q1111 636 1046 636Q982 636 951 615.50Q920 595 920 537L920 517Q920 458 951.50 437Q983 416 1046 416Q1109 416 1141 437Q1173 458 1173 516L1173 537M852 275L1241 275L1241 205L852 205L852 275Z"  horiz-adv-x="1301" vert-adv-y="1000"  />

      
      <glyph glyph-name="unib7" unicode="&#xb7;" d="M64 268Q64 325 126 325Q190 325 190 268Q190 212 126 212Q64 212 64 268Z"  horiz-adv-x="254" vert-adv-y="1000"  />

      
      <glyph glyph-name="uni2022" unicode="&#x2022;" d="M86 359Q86 422 122.50 450.50Q159 479 231 479Q303 479 339.50 450.50Q376 422 376 359Q376 296 339.50 266.50Q303 237 231 237Q159 237 122.50 266.50Q86 296 86 359Z"  horiz-adv-x="462" vert-adv-y="1000"  />

      
      <glyph glyph-name="uni2032" unicode="&#x2032;" d="M207 690L128 434L44 434L113 690L207 690Z"  horiz-adv-x="239" vert-adv-y="1000"  />

      
      <glyph glyph-name="uni2033" unicode="&#x2033;" d="M207 690L128 434L44 434L113 690L207 690M405 690L326 434L242 434L311 690L405 690Z"  horiz-adv-x="438" vert-adv-y="1000"  />

      
      <glyph glyph-name="uni2b" unicode="&#x2b;" d="M296 314L51 314L51 393L296 393L296 623L380 623L380 393L622 393L622 314L380 314L380 85L296 85L296 314Z"  horiz-adv-x="673" vert-adv-y="1000"  />

      
      <glyph glyph-name="uni2212" unicode="&#x2212;" d="M622 393L622 314L51 314L51 393L622 393Z"  horiz-adv-x="673" vert-adv-y="1000"  />

      
      <glyph glyph-name="unib1" unicode="&#xb1;" d="M300 418L54 418L54 496L300 496L300 680L383 680L383 496L626 496L626 418L383 418L383 233L300 233L300 418M626 160L626 81L54 81L54 160L626 160Z"  horiz-adv-x="680" vert-adv-y="1000"  />

      
      <glyph glyph-name="unif7" unicode="&#xf7;" d="M273 559Q273 615 335 615Q399 615 399 559Q399 503 335 503Q273 503 273 559M273 148Q273 204 335 204Q399 204 399 148Q399 92 335 92Q273 92 273 148M621 393L621 314L50 314L50 393L621 393Z"  horiz-adv-x="671" vert-adv-y="1000"  />

      
      <glyph glyph-name="unid7" unicode="&#xd7;" d="M104 614L331 410L558 613L613 554L392 356L613 159L558 99L331 302L104 99L50 159L270 356L49 554L104 614Z"  horiz-adv-x="662" vert-adv-y="1000"  />

      
      <glyph glyph-name="uni3d" unicode="&#x3d;" d="M627 506L627 427L56 427L56 506L627 506M627 286L627 207L56 207L56 286L627 286Z"  horiz-adv-x="681" vert-adv-y="1000"  />

      
      <glyph glyph-name="uni3c" unicode="&#x3c;" d="M48 404L619 628L619 542L147 359L619 177L619 89L48 312L48 404Z"  horiz-adv-x="689" vert-adv-y="1000"  />

      
      <glyph glyph-name="uni3e" unicode="&#x3e;" d="M641 313L70 89L70 175L542 358L70 540L70 628L641 405L641 313Z"  horiz-adv-x="689" vert-adv-y="1000"  />

      
      <glyph glyph-name="uni2264" unicode="&#x2264;" d="M54 501L626 680L626 598L155 453L626 309L626 225L54 403L54 501M626 160L626 81L54 81L54 160L626 160Z"  horiz-adv-x="687" vert-adv-y="1000"  />

      
      <glyph glyph-name="uni2265" unicode="&#x2265;" d="M533 451L62 597L62 680L633 502L633 402L62 225L62 308L533 451M633 160L633 81L62 81L62 160L633 160Z"  horiz-adv-x="687" vert-adv-y="1000"  />

      
      <glyph glyph-name="uni2248" unicode="&#x2248;" d="M195 535Q235 535 270.50 523.50Q306 512 339 498.50Q372 485 402.50 473.50Q433 462 462 462Q538 462 538 531L616 531Q616 462 580.50 425Q545 388 471 388Q434 388 399 399Q364 410 331 423.50Q298 437 266.50 448.50Q235 460 206 460Q164 460 145.50 443Q127 426 127 392L50 392Q50 461 86 498Q122 535 195 535M195 324Q235 324 270.50 312.50Q306 301 339 287.50Q372 274 402.50 262.50Q433 251 462 251Q538 251 538 320L616 320Q616 252 580.50 214.50Q545 177 471 177Q434 177 399 188Q364 199 331 213Q298 227 266.50 238Q235 249 206 249Q164 249 145.50 231.50Q127 214 127 181L50 181Q50 251 86 287.50Q122 324 195 324Z"  horiz-adv-x="666" vert-adv-y="1000"  />

      
      <glyph glyph-name="uni2260" unicode="&#x2260;" d="M381 506L469 657L558 657L470 506L625 506L625 428L425 428L342 286L625 286L625 207L296 207L210 58L120 58L207 207L54 207L54 286L253 286L335 428L54 428L54 506L381 506Z"  horiz-adv-x="678" vert-adv-y="1000"  />

      
      <glyph glyph-name="uniac" unicode="&#xac;" d="M539 364L49 364L49 443L622 443L622 153L539 153L539 364Z"  horiz-adv-x="674" vert-adv-y="1000"  />

      
      <glyph glyph-name="uni24" unicode="&#x24;" d="M141 188Q150 151 168 127Q186 103 215.50 89Q245 75 286.50 69.50Q328 64 384 64Q501 64 553.50 94Q606 124 606 187Q606 230 582.50 253.50Q559 277 520 289Q481 301 431.50 306Q382 311 330.50 315.50Q279 320 229.50 328.50Q180 337 141 356.50Q102 376 78.50 411Q55 446 55 503Q55 598 125.50 645.50Q196 693 330 700L330 810L419 810L419 700Q546 693 613 648Q680 603 691 509L591 509Q586 543 569 565.50Q552 588 524 601.50Q496 615 457.50 620.50Q419 626 372 626Q264 626 207.50 599Q151 572 151 504Q151 464 174.50 442Q198 420 237 408.50Q276 397 325.50 393Q375 389 426.50 384Q478 379 527.50 370Q577 361 616 341Q655 321 678.50 285Q702 249 702 191Q702 91 633.50 42.50Q565-6 417-10L417-120L328-120L328-9Q259-6 208.50 7Q158 20 123.50 44Q89 68 69 103.50Q49 139 42 188L141 188Z"  horiz-adv-x="748" vert-adv-y="1000"  />

      
      <glyph glyph-name="unia2" unicode="&#xa2;" d="M44 247Q44 371 101 433.50Q158 496 276 505L276 616L363 616L363 505Q458 499 513 461.50Q568 424 581 351L489 351Q473 401 433.50 421Q394 441 320 441Q224 441 180 402Q136 363 136 275L136 220Q136 129 184 92Q232 55 320 55Q397 55 436.50 77.50Q476 100 490 143L582 143Q553 4 363-9L363-120L276-120L276-9Q220-5 176.50 10.50Q133 26 103.50 56.50Q74 87 59 134Q44 181 44 247Z"  horiz-adv-x="617" vert-adv-y="1000"  />

      
      <glyph glyph-name="unia3" unicode="&#xa3;" d="M72 332L176 332Q159 348 141 366Q123 384 108.50 405Q94 426 85 451.50Q76 477 76 509Q76 606 151.50 653.50Q227 701 370 701Q505 701 581 655.50Q657 610 664 511L567 511Q561 575 512.50 601Q464 627 370 627Q277 627 224.50 600Q172 573 172 513L172 494Q172 468 182.50 446.50Q193 425 209.50 406.50Q226 388 245.50 370Q265 352 282 332L543 332L543 264L322 264Q325 253 327 242Q329 231 329 219Q329 173 303 137Q277 101 230 78L669 78L669 0L45 0L45 75Q85 75 120.50 84Q156 93 182 110.50Q208 128 223.50 152Q239 176 239 206L239 224Q239 246 230 264L72 264L72 332Z"  horiz-adv-x="711" vert-adv-y="1000"  />

      
      <glyph glyph-name="unia4" unicode="&#xa4;" d="M115 571L187 499Q233 522 298 522Q363 522 409 499L481 572L534 521L467 454Q503 410 503 346Q503 284 469 241L534 177L482 125L412 195Q364 172 298 172Q233 172 186 194L115 123L63 174L128 239Q95 281 95 346Q95 408 129 453L63 521L115 571M424 346Q424 398 390.50 427Q357 456 298 456Q240 456 206.50 427Q173 398 173 346Q173 294 206.50 266Q240 238 298 238Q357 238 390.50 266Q424 294 424 346Z"  horiz-adv-x="597" vert-adv-y="1000"  />

      
      <glyph glyph-name="unia5" unicode="&#xa5;" d="M133 690L399 367L657 690L759 690L473 335L662 335L662 267L443 267L443 186L662 186L662 118L443 118L443 0L345 0L345 118L127 118L127 186L345 186L345 267L127 267L127 335L314 335L20 690L133 690Z"  horiz-adv-x="781" vert-adv-y="1000"  />

      
      <glyph glyph-name="uni20AC" unicode="&#x20AC;" d="M150 305Q149 314 149 323.50Q149 333 149 344Q149 355 149 366Q149 377 150 388L46 388L46 449L157 449Q182 583 272.50 642Q363 701 511 701Q669 701 751 652Q833 603 850 495L751 495Q737 567 678.50 595.50Q620 624 511 624Q406 624 338.50 583.50Q271 543 253 449L596 449L596 388L247 388L247 378L247 315L247 305L596 305L596 243L253 243Q272 149 338.50 107.50Q405 66 512 66Q564 66 604 72Q644 78 674 92Q704 106 723 129Q742 152 752 186L851 186Q828 85 747 37Q666-11 511-11Q436-11 376 3Q316 17 271 47.50Q226 78 197.50 126.50Q169 175 157 243L46 243L46 305L150 305Z"  horiz-adv-x="894" vert-adv-y="1000"  />

      
      <glyph glyph-name="uni20B4" unicode="&#x20B4;" d="M767 306L767 246L239 246Q215 233 200 213Q185 193 185 167L185 154Q185 107 238 83.50Q291 60 405 60Q514 60 573.50 87Q633 114 639 165L735 165Q729 79 643.50 34Q558-11 405-11Q242-11 165 31Q88 73 88 150Q88 183 102 206.50Q116 230 137 246L53 246L53 306L767 306M53 446L578 446Q598 459 612 476.50Q626 494 626 521L626 535Q626 579 576.50 604.50Q527 630 414 630Q311 630 254.50 603Q198 576 192 523L95 523Q102 609 185 655Q268 701 414 701Q496 701 554.50 689.50Q613 678 650.50 657Q688 636 705 605.50Q722 575 722 537Q722 507 710.50 485Q699 463 681 446L767 446L767 386L53 386L53 446Z"  horiz-adv-x="820" vert-adv-y="1000"  />

      
      <glyph glyph-name="uni20B8" unicode="&#x20B8;" d="M30 470L30 541L711 541L711 470L419 470L419 0L323 0L323 470L30 470M711 690L711 622L30 622L30 690L711 690Z"  horiz-adv-x="742" vert-adv-y="1000"  />

      
      <glyph glyph-name="uni20BD" unicode="&#x20BD;" d="M45 353L159 353L159 690L579 690Q687 690 739 635Q791 580 791 484Q791 390 739.50 336.50Q688 283 579 283L254 283L254 202L641 202L641 134L254 134L254 0L159 0L159 134L45 134L45 202L159 202L159 283L45 283L45 353M693 494Q693 551 661.50 582.50Q630 614 561 614L254 614L254 354L561 354Q631 354 662 386Q693 418 693 472L693 494Z"  horiz-adv-x="827" vert-adv-y="1000"  />

      
      <glyph glyph-name="uni5e" unicode="&#x5e;" d="M241 664L126 442L39 442L190 730L292 730L443 442L356 442L241 664Z"  horiz-adv-x="482" vert-adv-y="1000"  />

      
      <glyph glyph-name="uni7e" unicode="&#x7e;" d="M197 438Q240 438 276 424Q312 410 343.50 393.50Q375 377 403 363Q431 349 460 349Q534 349 534 432L612 432Q612 358 576.50 317Q541 276 466 276Q428 276 394 289.50Q360 303 327.50 319.50Q295 336 264.50 349.50Q234 363 204 363Q163 363 145.50 342.50Q128 322 128 282L51 282Q51 357 87 397.50Q123 438 197 438Z"  horiz-adv-x="663" vert-adv-y="1000"  />

      
      <glyph glyph-name="unia8" unicode="&#xa8;" d="M19 657Q19 709 77 709Q135 709 135 657Q135 605 77 605Q19 605 19 657M239 657Q239 709 297 709Q355 709 355 657Q355 605 297 605Q239 605 239 657Z"  horiz-adv-x="374" vert-adv-y="1000"  />

      
      <glyph glyph-name="uni02D9" unicode="&#x02D9;" d="M78 657Q78 683 93.50 696.50Q109 710 138 710Q199 710 199 657Q199 604 138 604Q109 604 93.50 617.50Q78 631 78 657Z"  horiz-adv-x="277" vert-adv-y="1000"  />

      
      <glyph glyph-name="unia9" unicode="&#xa9;" d="M239 343Q239 446 290.50 496.50Q342 547 451 547Q537 547 588.50 517Q640 487 650 418L573 418Q563 456 532.50 470Q502 484 451 484Q383 484 350.50 454.50Q318 425 318 370L318 316Q318 258 353.50 235Q389 212 451 212Q557 212 573 278L651 278Q639 211 585.50 180Q532 149 451 149Q403 149 363.50 159Q324 169 296.50 192Q269 215 254 252Q239 289 239 343M778 371Q778 437 754 488.50Q730 540 686.50 575.50Q643 611 583 629Q523 647 451 647Q379 647 318.50 628.50Q258 610 214.50 575Q171 540 147 488.50Q123 437 123 370L123 322Q123 255 147 203Q171 151 214 115.50Q257 80 317.50 61.50Q378 43 451 43Q524 43 584.50 61.50Q645 80 688 115.50Q731 151 754.50 203.50Q778 256 778 324L778 371M58 346Q58 431 86 497Q114 563 166 608.50Q218 654 290 677.50Q362 701 451 701Q539 701 611.50 677.50Q684 654 735.50 608.50Q787 563 815 497Q843 431 843 346Q843 260 815 194Q787 128 735.50 82Q684 36 611.50 12.50Q539-11 451-11Q362-11 290 12.50Q218 36 166 82Q114 128 86 194Q58 260 58 346Z"  horiz-adv-x="901" vert-adv-y="1000"  />

      
      <glyph glyph-name="uni24C5" unicode="&#x24C5;" d="M499 543Q578 543 611.50 509Q645 475 645 416Q645 356 611.50 323Q578 290 499 290L383 290L383 156L307 156L307 543L499 543M570 429Q570 485 488 485L383 485L383 348L488 348Q530 348 550 363.50Q570 379 570 405L570 429M778 371Q778 437 754 488.50Q730 540 686.50 575.50Q643 611 583 629Q523 647 451 647Q379 647 318.50 628.50Q258 610 214.50 575Q171 540 147 488.50Q123 437 123 370L123 322Q123 255 147 203Q171 151 214 115.50Q257 80 317.50 61.50Q378 43 451 43Q524 43 584.50 61.50Q645 80 688 115.50Q731 151 754.50 203.50Q778 256 778 324L778 371M58 346Q58 431 86 497Q114 563 166 608.50Q218 654 290 677.50Q362 701 451 701Q539 701 611.50 677.50Q684 654 735.50 608.50Q787 563 815 497Q843 431 843 346Q843 260 815 194Q787 128 735.50 82Q684 36 611.50 12.50Q539-11 451-11Q362-11 290 12.50Q218 36 166 82Q114 128 86 194Q58 260 58 346Z"  horiz-adv-x="901" vert-adv-y="1000"  />

      
      <glyph glyph-name="uniae" unicode="&#xae;" d="M57 477Q57 530 74.50 571.50Q92 613 124 642Q156 671 202 686Q248 701 304 701Q361 701 407 686Q453 671 485.50 642Q518 613 535.50 571.50Q553 530 553 477Q553 423 535.50 381.50Q518 340 485.50 311.50Q453 283 407 268.50Q361 254 304 254Q248 254 202 268.50Q156 283 124 311.50Q92 340 74.50 381.50Q57 423 57 477M501 497Q501 536 486.50 566Q472 596 446 616Q420 636 384 646.50Q348 657 304 657Q217 657 163.50 616Q110 575 110 497L110 468Q110 383 162.50 341Q215 299 304 299Q393 299 447 341.50Q501 384 501 468L501 497M337 594Q381 594 400.50 574Q420 554 420 520Q420 469 378 453L423 367L369 367L327 447L259 447L259 367L209 367L209 594L337 594M369 524Q369 554 334 554L259 554L259 487L334 487Q369 487 369 518L369 524Z"  horiz-adv-x="610" vert-adv-y="1000"  />

      
      <glyph glyph-name="uni2122" unicode="&#x2122;" d="M478 621L478 357L409 357L409 690L512 690L623 462L736 690L838 690L838 357L762 357L762 622L657 408L581 408L478 621M29 633L29 690L363 690L363 633L235 633L235 357L159 357L159 633L29 633Z"  horiz-adv-x="912" vert-adv-y="1000"  />

      
      <glyph glyph-name="unib0" unicode="&#xb0;" d="M43 539Q43 619 95.50 660Q148 701 249 701Q349 701 401.50 659.50Q454 618 454 539Q454 460 401.50 418.50Q349 377 249 377Q148 377 95.50 418Q43 459 43 539M375 539Q375 591 343.50 614.50Q312 638 249 638Q185 638 154 614.50Q123 591 123 539Q123 486 154 463Q185 440 249 440Q312 440 343.50 463Q375 486 375 539Z"  horiz-adv-x="497" vert-adv-y="1000"  />

      
      </font>
</defs>
</svg>
